<svg width="173" height="40" viewBox="0 0 173 40" fill="none" xmlns="http://www.w3.org/2000/svg">
<path d="M0 0H153C164.046 0 173 8.95431 173 20V40H20C8.95431 40 0 31.0457 0 20V0Z" fill="#0265DC"/>
<path d="M25.44 28V13.1H31.72C32.7067 13.1 33.5467 13.2733 34.24 13.62C34.9467 13.9533 35.4867 14.4333 35.86 15.06C36.2467 15.6733 36.44 16.42 36.44 17.3C36.44 17.98 36.2533 18.62 35.88 19.22C35.52 19.8067 34.94 20.2933 34.14 20.68V19.42C34.8733 19.7 35.4533 20.0467 35.88 20.46C36.3067 20.8733 36.6067 21.3333 36.78 21.84C36.9533 22.3467 37.04 22.88 37.04 23.44C37.04 24.8667 36.5667 25.9867 35.62 26.8C34.6867 27.6 33.3867 28 31.72 28H25.44ZM28.16 25.6H32C32.7067 25.6 33.2667 25.4067 33.68 25.02C34.1067 24.62 34.32 24.0933 34.32 23.44C34.32 22.7867 34.1067 22.26 33.68 21.86C33.2667 21.46 32.7067 21.26 32 21.26H28.16V25.6ZM28.16 18.88H31.86C32.42 18.88 32.8667 18.72 33.2 18.4C33.5333 18.0667 33.7 17.64 33.7 17.12C33.7 16.6 33.5333 16.1867 33.2 15.88C32.8667 15.5733 32.42 15.42 31.86 15.42H28.16V18.88ZM39.2681 28V13.1H49.1681V15.5H41.9881V19.32H48.7681V21.72H41.9881V25.6H49.1681V28H39.2681ZM56.4827 28.24C55.536 28.24 54.656 28.0667 53.8427 27.72C53.0427 27.3733 52.3493 26.8933 51.7627 26.28C51.1893 25.6533 50.7693 24.9267 50.5027 24.1L52.7627 23.12C53.1227 23.9733 53.6427 24.6467 54.3227 25.14C55.0027 25.62 55.7693 25.86 56.6227 25.86C57.1027 25.86 57.516 25.7867 57.8627 25.64C58.2227 25.48 58.496 25.2667 58.6827 25C58.8827 24.7333 58.9827 24.4133 58.9827 24.04C58.9827 23.6 58.8493 23.24 58.5827 22.96C58.3293 22.6667 57.9427 22.44 57.4227 22.28L54.5627 21.36C53.4027 21 52.5293 20.46 51.9427 19.74C51.356 19.02 51.0627 18.1733 51.0627 17.2C51.0627 16.3467 51.2693 15.5933 51.6827 14.94C52.1093 14.2867 52.696 13.78 53.4427 13.42C54.2027 13.0467 55.0693 12.86 56.0427 12.86C56.936 12.86 57.756 13.02 58.5027 13.34C59.2493 13.6467 59.8893 14.08 60.4227 14.64C60.9693 15.1867 61.376 15.8333 61.6427 16.58L59.4027 17.58C59.1093 16.8333 58.6693 16.26 58.0827 15.86C57.496 15.4467 56.816 15.24 56.0427 15.24C55.5893 15.24 55.1893 15.32 54.8427 15.48C54.496 15.6267 54.2227 15.84 54.0227 16.12C53.836 16.3867 53.7427 16.7067 53.7427 17.08C53.7427 17.4933 53.876 17.86 54.1427 18.18C54.4093 18.4867 54.816 18.7267 55.3627 18.9L58.1027 19.76C59.2893 20.1467 60.176 20.68 60.7627 21.36C61.3627 22.04 61.6627 22.88 61.6627 23.88C61.6627 24.7333 61.4427 25.4867 61.0027 26.14C60.5627 26.7933 59.956 27.3067 59.1827 27.68C58.4093 28.0533 57.5093 28.24 56.4827 28.24ZM66.7519 28V15.5H62.8919V13.1H73.2919V15.5H69.4919V28H66.7519ZM83.8264 28.24C82.8797 28.24 81.9997 28.0667 81.1864 27.72C80.3864 27.3733 79.6931 26.8933 79.1064 26.28C78.5331 25.6533 78.1131 24.9267 77.8464 24.1L80.1064 23.12C80.4664 23.9733 80.9864 24.6467 81.6664 25.14C82.3464 25.62 83.1131 25.86 83.9664 25.86C84.4464 25.86 84.8597 25.7867 85.2064 25.64C85.5664 25.48 85.8397 25.2667 86.0264 25C86.2264 24.7333 86.3264 24.4133 86.3264 24.04C86.3264 23.6 86.1931 23.24 85.9264 22.96C85.6731 22.6667 85.2864 22.44 84.7664 22.28L81.9064 21.36C80.7464 21 79.8731 20.46 79.2864 19.74C78.6997 19.02 78.4064 18.1733 78.4064 17.2C78.4064 16.3467 78.6131 15.5933 79.0264 14.94C79.4531 14.2867 80.0397 13.78 80.7864 13.42C81.5464 13.0467 82.4131 12.86 83.3864 12.86C84.2797 12.86 85.0997 13.02 85.8464 13.34C86.5931 13.6467 87.2331 14.08 87.7664 14.64C88.3131 15.1867 88.7197 15.8333 88.9864 16.58L86.7464 17.58C86.4531 16.8333 86.0131 16.26 85.4264 15.86C84.8397 15.4467 84.1597 15.24 83.3864 15.24C82.9331 15.24 82.5331 15.32 82.1864 15.48C81.8397 15.6267 81.5664 15.84 81.3664 16.12C81.1797 16.3867 81.0864 16.7067 81.0864 17.08C81.0864 17.4933 81.2197 17.86 81.4864 18.18C81.7531 18.4867 82.1597 18.7267 82.7064 18.9L85.4464 19.76C86.6331 20.1467 87.5197 20.68 88.1064 21.36C88.7064 22.04 89.0064 22.88 89.0064 23.88C89.0064 24.7333 88.7864 25.4867 88.3464 26.14C87.9064 26.7933 87.2997 27.3067 86.5264 27.68C85.7531 28.0533 84.8531 28.24 83.8264 28.24ZM91.4556 28V13.1H101.356V15.5H94.1756V19.32H100.956V21.72H94.1756V25.6H101.356V28H91.4556ZM103.35 28V13.1H106.07V25.6H112.45V28H103.35ZM114.21 28V13.1H116.93V25.6H123.31V28H114.21ZM125.069 28V13.1H134.969V15.5H127.789V19.32H134.569V21.72H127.789V25.6H134.969V28H125.069ZM136.963 28V13.1H142.503C143.517 13.1 144.41 13.2867 145.183 13.66C145.97 14.02 146.583 14.5533 147.023 15.26C147.463 15.9533 147.683 16.8 147.683 17.8C147.683 18.8267 147.437 19.7 146.943 20.42C146.463 21.14 145.81 21.6733 144.983 22.02L148.403 28H145.323L141.663 21.46L143.423 22.5H139.683V28H136.963ZM139.683 20.1H142.543C143.037 20.1 143.463 20.0067 143.823 19.82C144.183 19.62 144.463 19.3467 144.663 19C144.863 18.6533 144.963 18.2533 144.963 17.8C144.963 17.3333 144.863 16.9333 144.663 16.6C144.463 16.2533 144.183 15.9867 143.823 15.8C143.463 15.6 143.037 15.5 142.543 15.5H139.683V20.1Z" fill="white"/>
</svg>
