<svg width="4" height="4" viewBox="0 0 4 4" fill="none" xmlns="http://www.w3.org/2000/svg">
<path d="M2.48 3.488C2.20267 3.488 1.94667 3.41867 1.712 3.28C1.488 3.14133 1.30667 2.96 1.168 2.736C1.02933 2.50133 0.96 2.24533 0.96 1.968C0.96 1.69067 1.02933 1.44 1.168 1.216C1.30667 0.981333 1.488 0.794666 1.712 0.656C1.94667 0.517333 2.20267 0.447999 2.48 0.447999C2.75733 0.447999 3.008 0.517333 3.232 0.656C3.46667 0.794666 3.65333 0.981333 3.792 1.216C3.93067 1.44 4 1.69067 4 1.968C4 2.24533 3.93067 2.50133 3.792 2.736C3.65333 2.96 3.46667 3.14133 3.232 3.28C3.008 3.41867 2.75733 3.488 2.48 3.488Z" fill="#2A3541" fill-opacity="0.7"/>
</svg>
