<svg width="40" height="40" viewBox="0 0 40 40" fill="none" xmlns="http://www.w3.org/2000/svg">
<path d="M1 8C1 4.13401 4.13401 1 8 1H32C35.866 1 39 4.13401 39 8V32C39 35.866 35.866 39 32 39H8C4.13401 39 1 35.866 1 32V8Z" stroke="#273544" stroke-opacity="0.55" stroke-width="2"/>
<path d="M27.5013 20.5719L20.0013 27.9999L12.5013 20.5719C12.0066 20.0905 11.6169 19.5119 11.3568 18.8726C11.0967 18.2332 10.9718 17.5469 10.99 16.8569C11.0082 16.1668 11.169 15.4881 11.4624 14.8633C11.7558 14.2385 12.1754 13.6812 12.6948 13.2265C13.2141 12.7718 13.822 12.4296 14.4801 12.2214C15.1382 12.0132 15.8323 11.9435 16.5186 12.0167C17.205 12.09 17.8688 12.3045 18.4682 12.6468C19.0675 12.9892 19.5895 13.4519 20.0013 14.0059C20.4148 13.456 20.9374 12.9973 21.5364 12.6585C22.1353 12.3198 22.7978 12.1084 23.4822 12.0375C24.1666 11.9665 24.8584 12.0376 25.5141 12.2463C26.1697 12.455 26.7753 12.7968 27.2928 13.2503C27.8104 13.7038 28.2287 14.2592 28.5217 14.8818C28.8147 15.5044 28.976 16.1808 28.9956 16.8686C29.0152 17.5565 28.8925 18.2409 28.6354 18.8792C28.3783 19.5174 27.9922 20.0958 27.5013 20.5779" stroke="#273544" stroke-opacity="0.55" stroke-width="2" stroke-linecap="round" stroke-linejoin="round"/>
</svg>
