<svg xmlns="http://www.w3.org/2000/svg" style="display: none;">
    <symbol id="logo-big" viewBox="0 0 300 58" fill="none" xmlns="http://www.w3.org/2000/svg">
        <path d="M0 53.5402V4.14282H21.9882C25.9347 4.14282 29.42 4.73957 32.4441 5.93306C35.5193 7.12656 37.9283 8.89469 39.6709 11.2375C41.4136 13.5803 42.2849 16.4756 42.2849 19.9235C42.2849 23.2829 41.388 26.134 39.594 28.4768C37.8514 30.8196 35.4424 32.6098 32.3672 33.8475C29.3432 35.041 25.8835 35.6378 21.9882 35.6378H11.9167V53.5402H0ZM11.9167 26.6866H22.065C23.7564 26.6866 25.2172 26.3993 26.4473 25.8246C27.6774 25.25 28.6256 24.4543 29.2919 23.4376C30.0095 22.421 30.3683 21.2496 30.3683 19.9235C30.3683 18.5531 30.0095 17.3597 29.2919 16.343C28.6256 15.3263 27.6774 14.5306 26.4473 13.956C25.2172 13.3813 23.7564 13.094 22.065 13.094H11.9167V26.6866Z" fill="#0265DC"/>
        <path d="M47.5447 53.5402V17.3376H59.0769V53.5402H47.5447ZM47.5447 14.0886V4.14282H59.0769V14.0886H47.5447Z" fill="#0265DC"/>
        <path d="M62.6724 53.5402L77.3568 35.3726L62.5955 17.3376H75.9729L87.0438 31.3943H81.2008L92.2718 17.3376H105.649L90.8879 35.3726L105.495 53.5402H92.1949L81.3546 39.4835H86.8901L76.0498 53.5402H62.6724Z" fill="#0265DC"/>
        <path d="M109.188 53.5402V17.3376H119.952V26.1561L118.798 24.6974C119.413 21.9126 120.9 19.8572 123.257 18.531C125.615 17.2049 128.434 16.5419 131.714 16.5419C135.2 16.5419 138.249 17.3155 140.863 18.8626C143.529 20.3655 145.194 22.3988 145.861 24.9626L142.555 25.2279C143.939 22.2662 145.912 20.0782 148.475 18.6637C151.037 17.2491 154.036 16.5419 157.47 16.5419C160.494 16.5419 163.159 17.1165 165.466 18.2658C167.823 19.4151 169.668 21.0285 171.001 23.1061C172.334 25.1395 173 27.5264 173 30.2671V53.5402H161.468V32.3888C161.468 30.9743 161.16 29.7587 160.545 28.742C159.981 27.7254 159.161 26.9297 158.085 26.3551C157.009 25.7804 155.702 25.4931 154.164 25.4931C152.678 25.4931 151.371 25.7804 150.243 26.3551C149.167 26.9297 148.321 27.7254 147.706 28.742C147.142 29.7587 146.86 30.9743 146.86 32.3888V53.5402H135.328V32.3888C135.328 30.9743 135.02 29.7587 134.405 28.742C133.842 27.7254 133.021 26.9297 131.945 26.3551C130.869 25.7804 129.562 25.4931 128.024 25.4931C126.538 25.4931 125.231 25.7804 124.103 26.3551C123.027 26.9297 122.181 27.7254 121.566 28.742C121.002 29.7587 120.72 30.9743 120.72 32.3888V53.5402H109.188Z" fill="#0265DC"/>
        <path d="M192.044 54.3358C189.02 54.3358 186.406 53.9159 184.202 53.076C181.998 52.2362 180.307 51.0427 179.128 49.4956C177.949 47.9042 177.36 46.0256 177.36 43.8596C177.36 41.8263 177.898 40.036 178.974 38.4889C180.051 36.8976 181.691 35.5715 183.895 34.5106C186.15 33.4497 188.943 32.6983 192.275 32.2562L205.114 30.466V37.7595L194.351 39.4172C192.711 39.6824 191.455 40.1465 190.584 40.8096C189.712 41.4284 189.277 42.3346 189.277 43.5281C189.277 44.6332 189.764 45.4952 190.737 46.114C191.711 46.7328 192.916 47.0423 194.351 47.0423C196.247 47.0423 197.913 46.6886 199.348 45.9814C200.783 45.2741 201.885 44.3238 202.654 43.1303C203.474 41.8926 203.884 40.5444 203.884 39.0857V29.6703C203.884 28.3 203.243 27.1507 201.962 26.2224C200.732 25.2942 199.041 24.83 196.888 24.83C194.838 24.83 193.018 25.3163 191.429 26.2888C189.892 27.2612 188.764 28.5431 188.047 30.1345L178.821 26.3551C179.641 24.3217 180.948 22.5757 182.742 21.117C184.536 19.6582 186.688 18.531 189.2 17.7354C191.711 16.9397 194.453 16.5419 197.426 16.5419C200.963 16.5419 204.089 17.0944 206.806 18.1995C209.522 19.3046 211.624 20.8517 213.11 22.8409C214.648 24.7858 215.416 27.0623 215.416 29.6703V53.5402H204.653V47.7053L207.267 47.3075C206.037 48.8988 204.679 50.2249 203.192 51.2858C201.706 52.3025 200.04 53.0539 198.195 53.5402C196.35 54.0706 194.3 54.3358 192.044 54.3358Z" fill="#0265DC"/>
        <path d="M222.336 53.5402V17.3376H233.1V26.0235L232.331 24.7637C233.254 21.7137 234.766 19.6582 236.867 18.5974C239.02 17.4923 241.557 16.9397 244.478 16.9397H246.938V25.5594H243.325C240.506 25.5594 238.225 26.3109 236.483 27.8138C234.74 29.2725 233.869 31.35 233.869 34.0465V53.5402H222.336Z" fill="#0265DC"/>
        <path d="M272.177 53.938C267.102 53.938 263.156 52.7666 260.337 50.4238C257.569 48.0368 256.185 44.7216 256.185 40.4781V25.9572H249.112V17.3376H249.497C251.649 17.3376 253.289 16.8734 254.417 15.9451C255.596 15.0169 256.185 13.6245 256.185 11.7679V9.11571H267.717V17.3376H277.558V25.9572H267.717V39.815C267.717 41.0527 267.974 42.0915 268.486 42.9314C268.999 43.727 269.793 44.3238 270.87 44.7216C271.946 45.1194 273.279 45.3183 274.867 45.3183C275.226 45.3183 275.636 45.2962 276.098 45.252C276.559 45.2078 277.046 45.1636 277.558 45.1194V53.5402C276.79 53.6286 275.918 53.717 274.944 53.8054C273.971 53.8938 273.048 53.938 272.177 53.938Z" fill="#0265DC"/>
        <path d="M288.468 53.5402V43.5944H300V53.5402H288.468Z" fill="#0265DC"/>
    </symbol>
    <symbol id="logo-small" viewBox="0 0 188 42" fill="none" xmlns="http://www.w3.org/2000/svg">
        <path d="M0 38.7705V3H13.7792C16.2524 3 18.4366 3.43213 20.3316 4.29638C22.2588 5.16063 23.7684 6.44101 24.8605 8.13751C25.9525 9.83401 26.4985 11.9306 26.4985 14.4274C26.4985 16.8601 25.9365 18.9247 24.8123 20.6212C23.7202 22.3177 22.2106 23.614 20.2834 24.5103C18.3884 25.3746 16.2203 25.8067 13.7792 25.8067H7.46777V38.7705H0ZM7.46777 19.3248H13.8274C14.8874 19.3248 15.8028 19.1167 16.5736 18.7006C17.3445 18.2845 17.9387 17.7083 18.3563 16.9721C18.8059 16.2359 19.0308 15.3876 19.0308 14.4274C19.0308 13.4351 18.8059 12.5708 18.3563 11.8346C17.9387 11.0984 17.3445 10.5222 16.5736 10.1061C15.8028 9.68997 14.8874 9.4819 13.8274 9.4819H7.46777V19.3248Z" fill="#0265DC"/>
        <path d="M29.7947 38.7705V12.5548H37.0215V38.7705H29.7947ZM29.7947 10.2021V3H37.0215V10.2021H29.7947Z" fill="#0265DC"/>
        <path d="M39.2747 38.7705L48.4769 25.6146L39.2265 12.5548H47.6097L54.5475 22.7338H50.8859L57.8237 12.5548H66.2068L56.9564 25.6146L66.1105 38.7705H57.7755L50.9822 28.5915H54.4511L47.6579 38.7705H39.2747Z" fill="#0265DC"/>
        <path d="M68.4246 38.7705V12.5548H75.1697V18.9407L74.447 17.8844C74.8324 15.8678 75.7639 14.3793 77.2414 13.4191C78.7189 12.4588 80.4854 11.9786 82.5411 11.9786C84.7252 11.9786 86.6363 12.5388 88.2744 13.6591C89.9446 14.7474 90.9885 16.2199 91.406 18.0764L89.3343 18.2685C90.2016 16.1239 91.4382 14.5394 93.0441 13.5151C94.6501 12.4908 96.5291 11.9786 98.6811 11.9786C100.576 11.9786 102.246 12.3948 103.692 13.227C105.169 14.0592 106.326 15.2276 107.161 16.732C107.996 18.2045 108.413 19.933 108.413 21.9176V38.7705H101.186V23.454C101.186 22.4297 100.994 21.5494 100.608 20.8132C100.255 20.077 99.741 19.5008 99.0665 19.0847C98.392 18.6686 97.573 18.4605 96.6094 18.4605C95.6779 18.4605 94.8589 18.6686 94.1523 19.0847C93.4777 19.5008 92.9478 20.077 92.5623 20.8132C92.209 21.5494 92.0324 22.4297 92.0324 23.454V38.7705H84.8055V23.454C84.8055 22.4297 84.6128 21.5494 84.2273 20.8132C83.874 20.077 83.3601 19.5008 82.6856 19.0847C82.0111 18.6686 81.1921 18.4605 80.2285 18.4605C79.297 18.4605 78.478 18.6686 77.7713 19.0847C77.0968 19.5008 76.5669 20.077 76.1814 20.8132C75.8281 21.5494 75.6515 22.4297 75.6515 23.454V38.7705H68.4246Z" fill="#0265DC"/>
        <path d="M120.348 39.3467C118.453 39.3467 116.815 39.0426 115.434 38.4344C114.052 37.8262 112.992 36.962 112.254 35.8416C111.515 34.6893 111.146 33.3289 111.146 31.7604C111.146 30.288 111.483 28.9916 112.157 27.8713C112.832 26.719 113.86 25.7587 115.241 24.9905C116.654 24.2222 118.405 23.6781 120.492 23.358L128.538 22.0616V27.3431L121.793 28.5435C120.765 28.7356 119.978 29.0717 119.432 29.5518C118.886 29.9999 118.613 30.6561 118.613 31.5204C118.613 32.3206 118.918 32.9448 119.529 33.3929C120.139 33.8411 120.894 34.0651 121.793 34.0651C122.982 34.0651 124.025 33.809 124.925 33.2969C125.824 32.7847 126.515 32.0965 126.997 31.2323C127.51 30.336 127.767 29.3597 127.767 28.3034V21.4854C127.767 20.4931 127.366 19.6609 126.563 18.9887C125.792 18.3165 124.732 17.9804 123.383 17.9804C122.098 17.9804 120.958 18.3325 119.962 19.0367C118.999 19.7409 118.292 20.6692 117.842 21.8215L112.061 19.0847C112.575 17.6123 113.394 16.3479 114.518 15.2916C115.642 14.2353 116.991 13.4191 118.565 12.8429C120.139 12.2667 121.857 11.9786 123.72 11.9786C125.937 11.9786 127.896 12.3788 129.598 13.179C131.301 13.9792 132.617 15.0996 133.549 16.54C134.512 17.9484 134.994 19.5969 134.994 21.4854V38.7705H128.249V34.5453L129.887 34.2572C129.116 35.4095 128.265 36.3698 127.334 37.138C126.402 37.8742 125.358 38.4184 124.202 38.7705C123.046 39.1546 121.761 39.3467 120.348 39.3467Z" fill="#0265DC"/>
        <path d="M139.331 38.7705V12.5548H146.076V18.8447L145.594 17.9324C146.172 15.7237 147.12 14.2353 148.437 13.4671C149.786 12.6668 151.376 12.2667 153.206 12.2667H154.748V18.5086H152.484C150.717 18.5086 149.288 19.0527 148.196 20.141C147.104 21.1973 146.558 22.7018 146.558 24.6544V38.7705H139.331Z" fill="#0265DC"/>
        <path d="M170.564 39.0586C167.384 39.0586 164.911 38.2103 163.144 36.5138C161.41 34.7853 160.543 32.3846 160.543 29.3117V18.7966H156.11V12.5548H156.351C157.7 12.5548 158.728 12.2187 159.435 11.5465C160.173 10.8743 160.543 9.86602 160.543 8.52162V6.60106H167.77V12.5548H173.937V18.7966H167.77V28.8316C167.77 29.7278 167.93 30.4801 168.251 31.0882C168.573 31.6644 169.07 32.0965 169.745 32.3846C170.419 32.6727 171.255 32.8168 172.25 32.8168C172.475 32.8168 172.732 32.8007 173.021 32.7687C173.31 32.7367 173.615 32.7047 173.937 32.6727V38.7705C173.455 38.8345 172.909 38.8985 172.298 38.9626C171.688 39.0266 171.11 39.0586 170.564 39.0586Z" fill="#0265DC"/>
        <path d="M180.773 38.7705V31.5684H188V38.7705H180.773Z" fill="#0265DC"/>
    </symbol>
    <symbol id="twitter-icon" viewBox="0 0 24 24" fill="none" xmlns="http://www.w3.org/2000/svg">
        <path d="M19.6441 6.18005C20.5012 5.64387 21.1425 4.7996 21.4483 3.80486C20.6429 4.30492 19.7618 4.65717 18.8429 4.84639C17.569 3.43621 15.5505 3.09303 13.9155 4.00862C12.2804 4.92421 11.4335 6.87189 11.848 8.76335C8.54901 8.59003 5.47544 6.95936 3.3921 4.2771C2.30485 6.2395 2.86046 8.74812 4.66182 10.01C4.01043 9.98806 3.37348 9.80351 2.80409 9.4717C2.80409 9.48971 2.80409 9.50772 2.80409 9.52573C2.80447 11.5699 4.18125 13.3307 6.09599 13.7358C5.49179 13.9079 4.85802 13.9332 4.24304 13.8099C4.78153 15.558 6.32121 16.7556 8.07611 16.7914C6.62265 17.9851 4.82769 18.6325 2.98002 18.6293C2.65252 18.6298 2.32528 18.6101 2 18.5703C3.87627 19.8319 6.06002 20.5016 8.29028 20.4992C11.3931 20.5215 14.375 19.2415 16.569 16.9455C18.763 14.6494 19.986 11.529 19.9644 8.28211C19.9644 8.09601 19.9603 7.91092 19.952 7.72683C20.7556 7.11913 21.4491 6.3663 22 5.50372C21.2514 5.85095 20.4573 6.07893 19.6441 6.18005Z" fill="#0D0D15"/>
    </symbol>
    <symbol id="facebook-icon" viewBox="0 0 20 20" fill="none" xmlns="http://www.w3.org/2000/svg">
        <path d="M0 10.0614C0.00116354 15.0111 3.5784 19.2255 8.437 20.0012V12.9692H5.9V10.0614H8.44V7.84786C8.32645 6.79898 8.68252 5.75363 9.41164 4.99534C10.1408 4.23703 11.1674 3.84437 12.213 3.92385C12.9635 3.93604 13.7122 4.0033 14.453 4.12508V6.59922H13.189C12.7538 6.54187 12.3164 6.68647 11.9998 6.99229C11.6832 7.2981 11.5218 7.73203 11.561 8.17184V10.0614H14.332L13.889 12.9702H11.561V20.0012C16.8155 19.1657 20.5001 14.3373 19.9455 9.01407C19.3909 3.69079 14.7913 -0.263846 9.47882 0.0151105C4.16636 0.294067 0.000844477 4.70896 0 10.0614Z" fill="#0D0D15"/>
    </symbol>
    <symbol id="telegram-icon" viewBox="0 0 24 24" fill="none" xmlns="http://www.w3.org/2000/svg">
        <path d="M23.5468 2.42273C23.1374 2.11452 22.4944 2.07042 21.8295 2.30739H21.8285C21.1292 2.55649 2.03537 9.82768 1.25808 10.1247C1.11671 10.1684 -0.118008 10.5774 0.00917513 11.4885C0.122712 12.3099 1.11507 12.6501 1.23625 12.6893L6.0905 14.165C6.41255 15.1168 7.59977 18.6283 7.86233 19.3785C8.02608 19.8462 8.293 20.4607 8.7608 20.5871C9.17128 20.7277 9.57957 20.5993 9.84376 20.4151L12.8116 17.9712L17.6025 21.2884L17.7166 21.349C18.0419 21.4769 18.3536 21.5409 18.6511 21.5409C18.8809 21.5409 19.1014 21.5026 19.3121 21.426C20.0299 21.1643 20.317 20.5571 20.347 20.4883L23.9256 3.97399C24.144 3.09199 23.8405 2.64323 23.5468 2.42273ZM10.3716 14.7553L8.73405 18.6322L7.0965 13.786L19.6511 5.54754L10.3716 14.7553Z" fill="#0D0D15"/>
    </symbol>
    <symbol id="shopping-icon" viewBox="0 0 40 40" fill="none" xmlns="http://www.w3.org/2000/svg">
        <path d="M0 8C0 3.58172 3.58172 0 8 0H32C36.4183 0 40 3.58172 40 8V32C40 36.4183 36.4183 40 32 40H8C3.58172 40 0 36.4183 0 32V8Z" fill="#0265DC"/>
        <path d="M23.9984 17V14C23.9984 11.7909 22.2076 10 19.9984 10C17.7893 10 15.9984 11.7909 15.9984 14V17M11.5904 18.352L10.9904 24.752C10.8198 26.5717 10.7345 27.4815 11.0365 28.1843C11.3017 28.8016 11.7665 29.3121 12.3564 29.6338C13.0279 30 13.9418 30 15.7695 30H24.2274C26.055 30 26.9689 30 27.6404 29.6338C28.2303 29.3121 28.6951 28.8016 28.9604 28.1843C29.2623 27.4815 29.177 26.5717 29.0064 24.752L28.4064 18.352C28.2624 16.8153 28.1903 16.047 27.8448 15.4662C27.5404 14.9546 27.0908 14.5451 26.553 14.2898C25.9424 14 25.1707 14 23.6274 14L16.3695 14C14.8261 14 14.0544 14 13.4438 14.2898C12.9061 14.5451 12.4564 14.9546 12.1521 15.4662C11.8065 16.047 11.7345 16.8153 11.5904 18.352Z" stroke="#F8F7FF" stroke-width="2" stroke-linecap="round" stroke-linejoin="round"/>
    </symbol>






</svg>