<svg xmlns="http://www.w3.org/2000/svg" style="display: none;">
    <symbol id="logo-big" viewBox="0 0 300 58" fill="none" xmlns="http://www.w3.org/2000/svg">
        <path d="M0 53.5402V4.14282H21.9882C25.9347 4.14282 29.42 4.73957 32.4441 5.93306C35.5193 7.12656 37.9283 8.89469 39.6709 11.2375C41.4136 13.5803 42.2849 16.4756 42.2849 19.9235C42.2849 23.2829 41.388 26.134 39.594 28.4768C37.8514 30.8196 35.4424 32.6098 32.3672 33.8475C29.3432 35.041 25.8835 35.6378 21.9882 35.6378H11.9167V53.5402H0ZM11.9167 26.6866H22.065C23.7564 26.6866 25.2172 26.3993 26.4473 25.8246C27.6774 25.25 28.6256 24.4543 29.2919 23.4376C30.0095 22.421 30.3683 21.2496 30.3683 19.9235C30.3683 18.5531 30.0095 17.3597 29.2919 16.343C28.6256 15.3263 27.6774 14.5306 26.4473 13.956C25.2172 13.3813 23.7564 13.094 22.065 13.094H11.9167V26.6866Z" fill="#0265DC"/>
        <path d="M47.5447 53.5402V17.3376H59.0769V53.5402H47.5447ZM47.5447 14.0886V4.14282H59.0769V14.0886H47.5447Z" fill="#0265DC"/>
        <path d="M62.6724 53.5402L77.3568 35.3726L62.5955 17.3376H75.9729L87.0438 31.3943H81.2008L92.2718 17.3376H105.649L90.8879 35.3726L105.495 53.5402H92.1949L81.3546 39.4835H86.8901L76.0498 53.5402H62.6724Z" fill="#0265DC"/>
        <path d="M109.188 53.5402V17.3376H119.952V26.1561L118.798 24.6974C119.413 21.9126 120.9 19.8572 123.257 18.531C125.615 17.2049 128.434 16.5419 131.714 16.5419C135.2 16.5419 138.249 17.3155 140.863 18.8626C143.529 20.3655 145.194 22.3988 145.861 24.9626L142.555 25.2279C143.939 22.2662 145.912 20.0782 148.475 18.6637C151.037 17.2491 154.036 16.5419 157.47 16.5419C160.494 16.5419 163.159 17.1165 165.466 18.2658C167.823 19.4151 169.668 21.0285 171.001 23.1061C172.334 25.1395 173 27.5264 173 30.2671V53.5402H161.468V32.3888C161.468 30.9743 161.16 29.7587 160.545 28.742C159.981 27.7254 159.161 26.9297 158.085 26.3551C157.009 25.7804 155.702 25.4931 154.164 25.4931C152.678 25.4931 151.371 25.7804 150.243 26.3551C149.167 26.9297 148.321 27.7254 147.706 28.742C147.142 29.7587 146.86 30.9743 146.86 32.3888V53.5402H135.328V32.3888C135.328 30.9743 135.02 29.7587 134.405 28.742C133.842 27.7254 133.021 26.9297 131.945 26.3551C130.869 25.7804 129.562 25.4931 128.024 25.4931C126.538 25.4931 125.231 25.7804 124.103 26.3551C123.027 26.9297 122.181 27.7254 121.566 28.742C121.002 29.7587 120.72 30.9743 120.72 32.3888V53.5402H109.188Z" fill="#0265DC"/>
        <path d="M192.044 54.3358C189.02 54.3358 186.406 53.9159 184.202 53.076C181.998 52.2362 180.307 51.0427 179.128 49.4956C177.949 47.9042 177.36 46.0256 177.36 43.8596C177.36 41.8263 177.898 40.036 178.974 38.4889C180.051 36.8976 181.691 35.5715 183.895 34.5106C186.15 33.4497 188.943 32.6983 192.275 32.2562L205.114 30.466V37.7595L194.351 39.4172C192.711 39.6824 191.455 40.1465 190.584 40.8096C189.712 41.4284 189.277 42.3346 189.277 43.5281C189.277 44.6332 189.764 45.4952 190.737 46.114C191.711 46.7328 192.916 47.0423 194.351 47.0423C196.247 47.0423 197.913 46.6886 199.348 45.9814C200.783 45.2741 201.885 44.3238 202.654 43.1303C203.474 41.8926 203.884 40.5444 203.884 39.0857V29.6703C203.884 28.3 203.243 27.1507 201.962 26.2224C200.732 25.2942 199.041 24.83 196.888 24.83C194.838 24.83 193.018 25.3163 191.429 26.2888C189.892 27.2612 188.764 28.5431 188.047 30.1345L178.821 26.3551C179.641 24.3217 180.948 22.5757 182.742 21.117C184.536 19.6582 186.688 18.531 189.2 17.7354C191.711 16.9397 194.453 16.5419 197.426 16.5419C200.963 16.5419 204.089 17.0944 206.806 18.1995C209.522 19.3046 211.624 20.8517 213.11 22.8409C214.648 24.7858 215.416 27.0623 215.416 29.6703V53.5402H204.653V47.7053L207.267 47.3075C206.037 48.8988 204.679 50.2249 203.192 51.2858C201.706 52.3025 200.04 53.0539 198.195 53.5402C196.35 54.0706 194.3 54.3358 192.044 54.3358Z" fill="#0265DC"/>
        <path d="M222.336 53.5402V17.3376H233.1V26.0235L232.331 24.7637C233.254 21.7137 234.766 19.6582 236.867 18.5974C239.02 17.4923 241.557 16.9397 244.478 16.9397H246.938V25.5594H243.325C240.506 25.5594 238.225 26.3109 236.483 27.8138C234.74 29.2725 233.869 31.35 233.869 34.0465V53.5402H222.336Z" fill="#0265DC"/>
        <path d="M272.177 53.938C267.102 53.938 263.156 52.7666 260.337 50.4238C257.569 48.0368 256.185 44.7216 256.185 40.4781V25.9572H249.112V17.3376H249.497C251.649 17.3376 253.289 16.8734 254.417 15.9451C255.596 15.0169 256.185 13.6245 256.185 11.7679V9.11571H267.717V17.3376H277.558V25.9572H267.717V39.815C267.717 41.0527 267.974 42.0915 268.486 42.9314C268.999 43.727 269.793 44.3238 270.87 44.7216C271.946 45.1194 273.279 45.3183 274.867 45.3183C275.226 45.3183 275.636 45.2962 276.098 45.252C276.559 45.2078 277.046 45.1636 277.558 45.1194V53.5402C276.79 53.6286 275.918 53.717 274.944 53.8054C273.971 53.8938 273.048 53.938 272.177 53.938Z" fill="#0265DC"/>
        <path d="M288.468 53.5402V43.5944H300V53.5402H288.468Z" fill="#0265DC"/>
    </symbol>
    <symbol id="logo-small" viewBox="0 0 188 42" fill="none" xmlns="http://www.w3.org/2000/svg">
        <path d="M0 38.7705V3H13.7792C16.2524 3 18.4366 3.43213 20.3316 4.29638C22.2588 5.16063 23.7684 6.44101 24.8605 8.13751C25.9525 9.83401 26.4985 11.9306 26.4985 14.4274C26.4985 16.8601 25.9365 18.9247 24.8123 20.6212C23.7202 22.3177 22.2106 23.614 20.2834 24.5103C18.3884 25.3746 16.2203 25.8067 13.7792 25.8067H7.46777V38.7705H0ZM7.46777 19.3248H13.8274C14.8874 19.3248 15.8028 19.1167 16.5736 18.7006C17.3445 18.2845 17.9387 17.7083 18.3563 16.9721C18.8059 16.2359 19.0308 15.3876 19.0308 14.4274C19.0308 13.4351 18.8059 12.5708 18.3563 11.8346C17.9387 11.0984 17.3445 10.5222 16.5736 10.1061C15.8028 9.68997 14.8874 9.4819 13.8274 9.4819H7.46777V19.3248Z" fill="#0265DC"/>
        <path d="M29.7947 38.7705V12.5548H37.0215V38.7705H29.7947ZM29.7947 10.2021V3H37.0215V10.2021H29.7947Z" fill="#0265DC"/>
        <path d="M39.2747 38.7705L48.4769 25.6146L39.2265 12.5548H47.6097L54.5475 22.7338H50.8859L57.8237 12.5548H66.2068L56.9564 25.6146L66.1105 38.7705H57.7755L50.9822 28.5915H54.4511L47.6579 38.7705H39.2747Z" fill="#0265DC"/>
        <path d="M68.4246 38.7705V12.5548H75.1697V18.9407L74.447 17.8844C74.8324 15.8678 75.7639 14.3793 77.2414 13.4191C78.7189 12.4588 80.4854 11.9786 82.5411 11.9786C84.7252 11.9786 86.6363 12.5388 88.2744 13.6591C89.9446 14.7474 90.9885 16.2199 91.406 18.0764L89.3343 18.2685C90.2016 16.1239 91.4382 14.5394 93.0441 13.5151C94.6501 12.4908 96.5291 11.9786 98.6811 11.9786C100.576 11.9786 102.246 12.3948 103.692 13.227C105.169 14.0592 106.326 15.2276 107.161 16.732C107.996 18.2045 108.413 19.933 108.413 21.9176V38.7705H101.186V23.454C101.186 22.4297 100.994 21.5494 100.608 20.8132C100.255 20.077 99.741 19.5008 99.0665 19.0847C98.392 18.6686 97.573 18.4605 96.6094 18.4605C95.6779 18.4605 94.8589 18.6686 94.1523 19.0847C93.4777 19.5008 92.9478 20.077 92.5623 20.8132C92.209 21.5494 92.0324 22.4297 92.0324 23.454V38.7705H84.8055V23.454C84.8055 22.4297 84.6128 21.5494 84.2273 20.8132C83.874 20.077 83.3601 19.5008 82.6856 19.0847C82.0111 18.6686 81.1921 18.4605 80.2285 18.4605C79.297 18.4605 78.478 18.6686 77.7713 19.0847C77.0968 19.5008 76.5669 20.077 76.1814 20.8132C75.8281 21.5494 75.6515 22.4297 75.6515 23.454V38.7705H68.4246Z" fill="#0265DC"/>
        <path d="M120.348 39.3467C118.453 39.3467 116.815 39.0426 115.434 38.4344C114.052 37.8262 112.992 36.962 112.254 35.8416C111.515 34.6893 111.146 33.3289 111.146 31.7604C111.146 30.288 111.483 28.9916 112.157 27.8713C112.832 26.719 113.86 25.7587 115.241 24.9905C116.654 24.2222 118.405 23.6781 120.492 23.358L128.538 22.0616V27.3431L121.793 28.5435C120.765 28.7356 119.978 29.0717 119.432 29.5518C118.886 29.9999 118.613 30.6561 118.613 31.5204C118.613 32.3206 118.918 32.9448 119.529 33.3929C120.139 33.8411 120.894 34.0651 121.793 34.0651C122.982 34.0651 124.025 33.809 124.925 33.2969C125.824 32.7847 126.515 32.0965 126.997 31.2323C127.51 30.336 127.767 29.3597 127.767 28.3034V21.4854C127.767 20.4931 127.366 19.6609 126.563 18.9887C125.792 18.3165 124.732 17.9804 123.383 17.9804C122.098 17.9804 120.958 18.3325 119.962 19.0367C118.999 19.7409 118.292 20.6692 117.842 21.8215L112.061 19.0847C112.575 17.6123 113.394 16.3479 114.518 15.2916C115.642 14.2353 116.991 13.4191 118.565 12.8429C120.139 12.2667 121.857 11.9786 123.72 11.9786C125.937 11.9786 127.896 12.3788 129.598 13.179C131.301 13.9792 132.617 15.0996 133.549 16.54C134.512 17.9484 134.994 19.5969 134.994 21.4854V38.7705H128.249V34.5453L129.887 34.2572C129.116 35.4095 128.265 36.3698 127.334 37.138C126.402 37.8742 125.358 38.4184 124.202 38.7705C123.046 39.1546 121.761 39.3467 120.348 39.3467Z" fill="#0265DC"/>
        <path d="M139.331 38.7705V12.5548H146.076V18.8447L145.594 17.9324C146.172 15.7237 147.12 14.2353 148.437 13.4671C149.786 12.6668 151.376 12.2667 153.206 12.2667H154.748V18.5086H152.484C150.717 18.5086 149.288 19.0527 148.196 20.141C147.104 21.1973 146.558 22.7018 146.558 24.6544V38.7705H139.331Z" fill="#0265DC"/>
        <path d="M170.564 39.0586C167.384 39.0586 164.911 38.2103 163.144 36.5138C161.41 34.7853 160.543 32.3846 160.543 29.3117V18.7966H156.11V12.5548H156.351C157.7 12.5548 158.728 12.2187 159.435 11.5465C160.173 10.8743 160.543 9.86602 160.543 8.52162V6.60106H167.77V12.5548H173.937V18.7966H167.77V28.8316C167.77 29.7278 167.93 30.4801 168.251 31.0882C168.573 31.6644 169.07 32.0965 169.745 32.3846C170.419 32.6727 171.255 32.8168 172.25 32.8168C172.475 32.8168 172.732 32.8007 173.021 32.7687C173.31 32.7367 173.615 32.7047 173.937 32.6727V38.7705C173.455 38.8345 172.909 38.8985 172.298 38.9626C171.688 39.0266 171.11 39.0586 170.564 39.0586Z" fill="#0265DC"/>
        <path d="M180.773 38.7705V31.5684H188V38.7705H180.773Z" fill="#0265DC"/>
    </symbol>
    <symbol id="twitter-icon" viewBox="0 0 24 24" fill="none" xmlns="http://www.w3.org/2000/svg">
        <path d="M19.6441 6.18005C20.5012 5.64387 21.1425 4.7996 21.4483 3.80486C20.6429 4.30492 19.7618 4.65717 18.8429 4.84639C17.569 3.43621 15.5505 3.09303 13.9155 4.00862C12.2804 4.92421 11.4335 6.87189 11.848 8.76335C8.54901 8.59003 5.47544 6.95936 3.3921 4.2771C2.30485 6.2395 2.86046 8.74812 4.66182 10.01C4.01043 9.98806 3.37348 9.80351 2.80409 9.4717C2.80409 9.48971 2.80409 9.50772 2.80409 9.52573C2.80447 11.5699 4.18125 13.3307 6.09599 13.7358C5.49179 13.9079 4.85802 13.9332 4.24304 13.8099C4.78153 15.558 6.32121 16.7556 8.07611 16.7914C6.62265 17.9851 4.82769 18.6325 2.98002 18.6293C2.65252 18.6298 2.32528 18.6101 2 18.5703C3.87627 19.8319 6.06002 20.5016 8.29028 20.4992C11.3931 20.5215 14.375 19.2415 16.569 16.9455C18.763 14.6494 19.986 11.529 19.9644 8.28211C19.9644 8.09601 19.9603 7.91092 19.952 7.72683C20.7556 7.11913 21.4491 6.3663 22 5.50372C21.2514 5.85095 20.4573 6.07893 19.6441 6.18005Z" fill="currentColor"/>
    </symbol>
    <symbol id="facebook-icon" viewBox="0 0 20 20" fill="none" xmlns="http://www.w3.org/2000/svg">
        <path d="M0 10.0614C0.00116354 15.0111 3.5784 19.2255 8.437 20.0012V12.9692H5.9V10.0614H8.44V7.84786C8.32645 6.79898 8.68252 5.75363 9.41164 4.99534C10.1408 4.23703 11.1674 3.84437 12.213 3.92385C12.9635 3.93604 13.7122 4.0033 14.453 4.12508V6.59922H13.189C12.7538 6.54187 12.3164 6.68647 11.9998 6.99229C11.6832 7.2981 11.5218 7.73203 11.561 8.17184V10.0614H14.332L13.889 12.9702H11.561V20.0012C16.8155 19.1657 20.5001 14.3373 19.9455 9.01407C19.3909 3.69079 14.7913 -0.263846 9.47882 0.0151105C4.16636 0.294067 0.000844477 4.70896 0 10.0614Z" fill="currentColor"/>
    </symbol>
    <symbol id="telegram-icon" viewBox="0 0 24 24" fill="none" xmlns="http://www.w3.org/2000/svg">
        <path d="M23.5468 2.42273C23.1374 2.11452 22.4944 2.07042 21.8295 2.30739H21.8285C21.1292 2.55649 2.03537 9.82768 1.25808 10.1247C1.11671 10.1684 -0.118008 10.5774 0.00917513 11.4885C0.122712 12.3099 1.11507 12.6501 1.23625 12.6893L6.0905 14.165C6.41255 15.1168 7.59977 18.6283 7.86233 19.3785C8.02608 19.8462 8.293 20.4607 8.7608 20.5871C9.17128 20.7277 9.57957 20.5993 9.84376 20.4151L12.8116 17.9712L17.6025 21.2884L17.7166 21.349C18.0419 21.4769 18.3536 21.5409 18.6511 21.5409C18.8809 21.5409 19.1014 21.5026 19.3121 21.426C20.0299 21.1643 20.317 20.5571 20.347 20.4883L23.9256 3.97399C24.144 3.09199 23.8405 2.64323 23.5468 2.42273ZM10.3716 14.7553L8.73405 18.6322L7.0965 13.786L19.6511 5.54754L10.3716 14.7553Z" fill="currentColor"/>
    </symbol>
    <symbol id="shopping-icon" viewBox="0 0 40 40" fill="none" xmlns="http://www.w3.org/2000/svg">
        <path d="M0 8C0 3.58172 3.58172 0 8 0H32C36.4183 0 40 3.58172 40 8V32C40 36.4183 36.4183 40 32 40H8C3.58172 40 0 36.4183 0 32V8Z" fill="#0265DC"/>
        <path d="M23.9984 17V14C23.9984 11.7909 22.2076 10 19.9984 10C17.7893 10 15.9984 11.7909 15.9984 14V17M11.5904 18.352L10.9904 24.752C10.8198 26.5717 10.7345 27.4815 11.0365 28.1843C11.3017 28.8016 11.7665 29.3121 12.3564 29.6338C13.0279 30 13.9418 30 15.7695 30H24.2274C26.055 30 26.9689 30 27.6404 29.6338C28.2303 29.3121 28.6951 28.8016 28.9604 28.1843C29.2623 27.4815 29.177 26.5717 29.0064 24.752L28.4064 18.352C28.2624 16.8153 28.1903 16.047 27.8448 15.4662C27.5404 14.9546 27.0908 14.5451 26.553 14.2898C25.9424 14 25.1707 14 23.6274 14L16.3695 14C14.8261 14 14.0544 14 13.4438 14.2898C12.9061 14.5451 12.4564 14.9546 12.1521 15.4662C11.8065 16.047 11.7345 16.8153 11.5904 18.352Z" stroke="#F8F7FF" stroke-width="2" stroke-linecap="round" stroke-linejoin="round"/>
    </symbol>
    <symbol id="pc-icon" viewBox="0 0 48 48" fill="none" xmlns="http://www.w3.org/2000/svg">
        <mask id="mask0_4452_1465" style="mask-type:luminance" maskUnits="userSpaceOnUse" x="0" y="0" width="48" height="48">
        <path d="M0 3.8147e-06H48V48H0V3.8147e-06Z" fill="white"/>
        </mask>
        <g mask="url(#mask0_4452_1465)">
        <path d="M13.5263 45.7721H32.0357C32.2908 45.7721 32.5035 45.5622 32.5035 45.3044V44.2068C32.5035 43.3431 31.7966 42.6388 30.9355 42.6388H14.6238C13.7628 42.6388 13.0586 43.3431 13.0586 44.2068V45.3044C13.0586 45.5622 13.2685 45.7721 13.5263 45.7721Z" stroke="#0265DC" stroke-width="1.12" stroke-miterlimit="10" stroke-linecap="round" stroke-linejoin="round"/>
        <path d="M16.5547 42.6388L17.8064 38.4532M27.7587 38.4532L29.0077 42.6388" stroke="#0265DC" stroke-width="1.12" stroke-miterlimit="10" stroke-linecap="round" stroke-linejoin="round"/>
        <path d="M5.8125 34.8973H36.1053" stroke="#0265DC" stroke-width="1.12" stroke-miterlimit="10" stroke-linecap="round" stroke-linejoin="round"/>
        <path d="M0.703125 26.1248C0.703125 26.8052 1.2585 27.3632 1.93884 27.3632H29.8132C30.4936 27.3632 31.049 26.8052 31.049 26.1248V3.46375C31.049 2.78341 30.4936 2.22804 29.8132 2.22804H1.93884C1.2585 2.22804 0.703125 2.78341 0.703125 3.46375V26.1248Z" stroke="#0265DC" stroke-width="1.12" stroke-miterlimit="10" stroke-linecap="round" stroke-linejoin="round"/>
        <path d="M21.1622 38.4531H7.09341C6.38916 38.4531 5.8125 37.8765 5.8125 37.1722V27.3631M36.1053 38.4531H24.3964M31.0507 14.9098H38.4757C39.1799 14.9098 39.7567 15.4864 39.7567 16.1907V28.9922" stroke="#0265DC" stroke-width="1.12" stroke-miterlimit="10" stroke-linecap="round" stroke-linejoin="round"/>
        <path d="M17.5012 8.78674H31.0491M0.703125 8.78674H14.2537" stroke="#0265DC" stroke-width="1.12" stroke-miterlimit="10" stroke-linecap="round" stroke-linejoin="round"/>
        <path d="M27.332 5.50479V5.51013" stroke="#0265DC" stroke-width="1.12" stroke-miterlimit="10" stroke-linecap="round" stroke-linejoin="round"/>
        <path d="M23.8555 5.50479V5.51013" stroke="#0265DC" stroke-width="1.12" stroke-miterlimit="10" stroke-linecap="round" stroke-linejoin="round"/>
        <path d="M20.3789 5.50479V5.51013" stroke="#0265DC" stroke-width="1.12" stroke-miterlimit="10" stroke-linecap="round" stroke-linejoin="round"/>
        <path d="M4.42188 5.50479L11.6184 5.51013" stroke="#0265DC" stroke-width="1.12" stroke-miterlimit="10" stroke-linecap="round" stroke-linejoin="round"/>
        <path d="M26.9542 12.4091H16.5421C16.2817 12.4091 16.0664 12.6218 16.0664 12.8848V16.0235C16.0664 16.2865 16.2817 16.5017 16.5421 16.5017H26.9542C27.2146 16.5017 27.4298 16.2865 27.4298 16.0235V12.8848C27.4298 12.6218 27.2146 12.4091 26.9542 12.4091Z" stroke="#0265DC" stroke-width="1.12" stroke-miterlimit="10" stroke-linecap="round" stroke-linejoin="round"/>
        <path d="M27.4297 20.411H16.0664" stroke="#0265DC" stroke-width="1.12" stroke-miterlimit="10" stroke-linecap="round" stroke-linejoin="round"/>
        <path d="M21.6126 23.741H27.4297M16.0664 23.741H17.8017" stroke="#0265DC" stroke-width="1.12" stroke-miterlimit="10" stroke-linecap="round" stroke-linejoin="round"/>
        <path d="M41.6997 42.9604H41.6758" stroke="#0265DC" stroke-width="1.12" stroke-miterlimit="10" stroke-linecap="round" stroke-linejoin="round"/>
        <path d="M37.3997 45.7721H46.002C46.7141 45.7721 47.2988 45.1901 47.2988 44.4753V30.2865C47.2988 29.5743 46.7141 28.9923 46.002 28.9923H37.3997C36.6875 28.9923 36.1055 29.5743 36.1055 30.2865V44.4753C36.1055 45.1901 36.6875 45.7721 37.3997 45.7721Z" stroke="#0265DC" stroke-width="1.12" stroke-miterlimit="10" stroke-linecap="round" stroke-linejoin="round"/>
        <path d="M4.80262 12.4091H11.9699C12.233 12.4091 12.4482 12.6217 12.4482 12.8848V23.2627C12.4482 23.5257 12.233 23.741 11.9699 23.741H4.80262C4.53956 23.741 4.32422 23.5257 4.32422 23.2627V12.8848C4.32422 12.6217 4.53956 12.4091 4.80262 12.4091Z" stroke="#0265DC" stroke-width="1.12" stroke-miterlimit="10" stroke-linecap="round" stroke-linejoin="round"/>
        </g>
    </symbol>
    <symbol id="graf-icon" viewBox="0 0 48 46" fill="none" xmlns="http://www.w3.org/2000/svg">
        <path d="M23.1605 18.8579H16.0742V11.7537" stroke="#0F73F6" stroke-width="1.12" stroke-miterlimit="10" stroke-linecap="round" stroke-linejoin="round"/>
        <path d="M46.9688 1.02722H1.03125V6.06713H46.9688V1.02722Z" stroke="#0F73F6" stroke-width="1.12" stroke-miterlimit="10" stroke-linecap="round" stroke-linejoin="round"/>
        <path d="M3.44922 30.9538V6.76306" stroke="#0F73F6" stroke-width="1.12" stroke-miterlimit="10" stroke-linecap="round" stroke-linejoin="round"/>
        <path d="M44.5508 6.76306V30.9538" stroke="#0F73F6" stroke-width="1.12" stroke-miterlimit="10" stroke-linecap="round" stroke-linejoin="round"/>
        <path d="M24 37.4355V39.1929" stroke="#0F73F6" stroke-width="1.12" stroke-miterlimit="10" stroke-linecap="round" stroke-linejoin="round"/>
        <path d="M23.9994 44.9727C25.4553 44.9727 26.6356 43.7897 26.6356 42.3303C26.6356 40.8709 25.4553 39.6879 23.9994 39.6879C22.5435 39.6879 21.3633 40.8709 21.3633 42.3303C21.3633 43.7897 22.5435 44.9727 23.9994 44.9727Z" stroke="#0F73F6" stroke-width="1.12" stroke-miterlimit="10" stroke-linecap="round" stroke-linejoin="round"/>
        <path d="M16.0714 26.804C20.4493 26.804 23.9982 23.2466 23.9982 18.8583C23.9982 14.47 20.4493 10.9126 16.0714 10.9126C11.6935 10.9126 8.14453 14.47 8.14453 18.8583C8.14453 23.2466 11.6935 26.804 16.0714 26.804Z" stroke="#0F73F6" stroke-width="1.12" stroke-miterlimit="10" stroke-linecap="round" stroke-linejoin="round"/>
        <path d="M38.8885 10.9126H28.668V17.1771H38.8885V10.9126Z" stroke="#0F73F6" stroke-width="1.12" stroke-miterlimit="10" stroke-linecap="round" stroke-linejoin="round"/>
        <path d="M28.668 21.5317H38.8885" stroke="#0F73F6" stroke-width="1.12" stroke-miterlimit="10" stroke-linecap="round" stroke-linejoin="round"/>
        <path d="M28.668 25.6792H38.8885" stroke="#0F73F6" stroke-width="1.12" stroke-miterlimit="10" stroke-linecap="round" stroke-linejoin="round"/>
        <path d="M46.9688 31.6497H1.03125V36.6896H46.9688V31.6497Z" stroke="#0F73F6" stroke-width="1.12" stroke-miterlimit="10" stroke-linecap="round" stroke-linejoin="round"/>
    </symbol>
    <symbol id="phone-icon" viewBox="0 0 48 48" fill="none" xmlns="http://www.w3.org/2000/svg">
        <path fill-rule="evenodd" clip-rule="evenodd" d="M31.9907 31.584H23.5667C23.2547 31.584 23.0147 31.344 23.0147 31.032C23.0147 30.744 23.2547 30.48 23.5667 30.48H31.9907V26.4H30.6947H30.6707H30.6467H30.6227H30.5747L30.5267 26.376H30.4787H30.4307H30.4067L30.3587 26.352H30.3107L30.2627 26.328H30.2387H30.1907L30.1427 26.304L30.1187 26.28H30.0707C30.0467 26.256 30.0227 26.256 29.9987 26.232C29.9507 26.232 29.9027 26.208 29.8787 26.184C29.3267 25.896 28.9667 25.32 28.9667 24.648V15.984C28.9667 15.432 29.2067 14.952 29.5907 14.64L29.6387 14.616L29.6627 14.592L29.6867 14.568H29.7107L29.7347 14.544L29.7587 14.52H29.7827V14.496H29.8067L29.8307 14.472H29.8547L29.8787 14.448H29.9027L29.9267 14.424C30.1667 14.304 30.4307 14.232 30.6947 14.232H31.9907V13.416C31.9907 12.768 31.4867 12.264 30.8387 12.264H17.1587C16.5107 12.264 16.0067 12.768 16.0067 13.416V16.416H24.4307C24.7427 16.416 24.9827 16.656 24.9827 16.968C24.9827 17.256 24.7427 17.52 24.4307 17.52H16.0067V21.6H17.3027H17.3267H17.3507H17.3747H17.3987H17.4227L17.4707 21.624H17.5187H17.5427H17.5667H17.5907H17.6147L17.6387 21.648H17.6627H17.6867L17.7347 21.672H17.7587H17.8067V21.696H17.8547L17.8787 21.72H17.9027H17.9267L17.9747 21.744L17.9987 21.768H18.0467V21.792H18.0707H18.0947L18.1187 21.816L18.1667 21.84L18.1907 21.864L18.2387 21.888H18.2627L18.2867 21.912L18.3107 21.936L18.3347 21.96L18.3587 21.984L18.3827 22.008L18.4307 22.032H18.4547V22.056H18.4787V22.08H18.5027V22.104C18.5267 22.128 18.5507 22.152 18.5987 22.176V22.2L18.6467 22.248L18.6707 22.272L18.6947 22.296V22.32L18.7187 22.368L18.7427 22.392L18.7667 22.416C18.7667 22.44 18.7907 22.464 18.7907 22.488L18.8147 22.512L18.8387 22.536V22.56L18.8627 22.584V22.608L18.8867 22.632V22.68L18.9107 22.704C18.9107 22.728 18.9347 22.752 18.9347 22.752V22.776V22.8H18.9587V22.824V22.848V22.872V22.896C18.9827 22.896 18.9827 22.92 18.9827 22.944L19.0067 22.992V23.04V23.088V23.112L19.0307 23.16V23.208V23.256V23.304V23.352V30.984V32.016C19.0307 32.112 19.0307 32.208 19.0067 32.28C19.0067 32.328 19.0067 32.376 18.9827 32.4C18.9827 32.448 18.9587 32.496 18.9587 32.544L18.9347 32.568V32.592V32.616L18.9107 32.664C18.9107 32.688 18.8867 32.712 18.8867 32.736L18.8627 32.76V32.784L18.8387 32.808L18.8147 32.832V32.856L18.7907 32.88V32.904V32.928H18.7667V32.952L18.7427 32.976V33H18.7187V33.024H18.6947V33.048C18.6707 33.072 18.6707 33.072 18.6707 33.096L18.6227 33.12L18.5987 33.144V33.168C18.2867 33.528 17.8067 33.768 17.3027 33.768H16.0067V34.584C16.0067 35.232 16.5107 35.736 17.1587 35.736H30.8387C31.4867 35.736 31.9907 35.232 31.9907 34.584V31.584ZM18.7667 22.416C18.7667 22.44 18.7907 22.464 18.7907 22.488L18.7667 22.416ZM33.1187 44.472H14.8787C13.4627 44.472 12.3107 43.32 12.3107 41.928V38.88V33.768H8.61472H8.56672L8.51872 33.744H8.49472H8.44672H8.39872H8.35072L8.30272 33.72H8.27872H8.25472H8.23072L8.18272 33.696C7.43872 33.504 6.88672 32.832 6.88672 32.016V23.352C6.88672 22.392 7.65472 21.6 8.61472 21.6H12.3107V9.11995V6.07195C12.3107 4.67995 13.4627 3.52795 14.8787 3.52795H33.1187C34.5347 3.52795 35.6867 4.67995 35.6867 6.07195V9.09595V9.11995V9.14395V14.232H39.3827C40.3427 14.232 41.1107 15.024 41.1107 15.984V24.648C41.1107 25.608 40.3427 26.4 39.3827 26.4H35.6867V38.88V41.928C35.6867 43.32 34.5347 44.472 33.1187 44.472ZM12.8627 32.664H14.3267L13.3907 31.728L13.3667 31.704L10.3187 28.656L7.96672 31.032V32.016V32.04V32.064V32.088V32.112L7.99072 32.136V32.16V32.184V32.208L8.01472 32.232V32.256V32.28H8.03872V32.304V32.328L8.06272 32.352V32.376H8.08672V32.4L8.11072 32.424L8.13472 32.448L8.15872 32.472L8.18272 32.496V32.52H8.20672L8.23072 32.544L8.25472 32.568H8.27872L8.30272 32.592H8.32672L8.35072 32.616H8.37472H8.39872V32.64H8.42272H8.44672H8.47072L8.49472 32.664H8.51872H8.54272H8.56672H8.59072H8.61472H12.8627ZM30.0707 24.744V24.768V24.792V24.816V24.84C30.0947 24.84 30.0947 24.864 30.0947 24.888V24.912H30.1187V24.936V24.96H30.1427V24.984L30.1667 25.008V25.032H30.1907V25.056L30.2147 25.08C30.2387 25.104 30.2387 25.128 30.2627 25.128V25.152C30.3827 25.248 30.5507 25.296 30.6947 25.296H32.5427H32.5667H35.1347H35.1587H39.3827C39.7427 25.296 40.0307 25.008 40.0307 24.648V15.984C40.0307 15.624 39.7427 15.336 39.3827 15.336H30.6947C30.4067 15.336 30.1427 15.552 30.0707 15.816V15.84V15.864V15.888V15.912V15.936H30.0467V15.96V15.984V24.648V24.672V24.696H30.0707V24.72V24.744ZM13.4147 33.768V38.328H34.5827V26.4H33.0947V31.008V31.032V31.056V34.584C33.0947 35.832 32.0867 36.84 30.8387 36.84H17.1587C15.9107 36.84 14.9027 35.832 14.9027 34.584V33.768H13.4147ZM13.4147 39.432V41.928C13.4147 42.72 14.0627 43.392 14.8787 43.392H33.1187C33.9347 43.392 34.5827 42.72 34.5827 41.928V39.432H13.4147ZM33.0947 14.232H34.5827V9.67195H13.4147V21.6H14.9027V13.416C14.9027 12.168 15.9107 11.16 17.1587 11.16H30.8387C32.0867 11.16 33.0947 12.168 33.0947 13.416V14.232ZM34.5827 8.56795V6.07195C34.5827 5.27995 33.9347 4.60795 33.1187 4.60795H28.5107V5.08795C28.5107 5.97595 27.7907 6.67195 26.9267 6.67195H21.0707C20.2067 6.67195 19.4867 5.97595 19.4867 5.08795V4.60795H14.8787C14.0627 4.60795 13.4147 5.27995 13.4147 6.07195V8.56795H34.5827ZM20.5907 4.60795V5.08795C20.5907 5.37595 20.8067 5.59195 21.0707 5.59195H26.9267C27.1907 5.59195 27.4067 5.37595 27.4067 5.08795V4.60795H20.5907ZM26.0387 41.952H21.7667C21.4787 41.952 21.2387 41.712 21.2387 41.4C21.2387 41.112 21.4787 40.872 21.7667 40.872H26.0387C26.3507 40.872 26.5907 41.112 26.5907 41.4C26.5907 41.712 26.3507 41.952 26.0387 41.952ZM15.8387 32.664H17.3027C17.6387 32.664 17.9507 32.376 17.9507 32.016V31.224L16.2947 29.568L14.5427 31.344L15.5507 32.352L15.7427 32.544H15.7667V32.568C15.7907 32.592 15.8147 32.616 15.8387 32.664ZM17.9507 29.664V23.352C17.9507 23.232 17.9267 23.136 17.8787 23.064C17.8547 23.04 17.8547 23.04 17.8547 23.016L17.8307 22.992V22.968H17.8067V22.944L17.7827 22.92V22.896H17.7587L17.7347 22.872L17.7107 22.848L17.6867 22.824H17.6627V22.8H17.6387L17.6147 22.776H17.5907V22.752H17.5667C17.4947 22.728 17.3987 22.704 17.3027 22.704H8.61472C8.25472 22.704 7.96672 22.992 7.96672 23.352V29.472L9.93472 27.504C10.1507 27.288 10.5107 27.288 10.7027 27.504L13.7747 30.552L15.9107 28.416C16.1267 28.2 16.4867 28.2 16.6787 28.416L17.9507 29.664ZM30.0707 26.28C30.0467 26.256 30.0227 26.256 29.9987 26.232L30.0707 26.28ZM13.9187 28.128C12.7427 28.128 11.7827 27.168 11.7827 25.992C11.7827 24.816 12.7427 23.856 13.9187 23.856C15.0947 23.856 16.0547 24.816 16.0547 25.992C16.0547 27.168 15.0947 28.128 13.9187 28.128ZM13.9187 24.936C13.3427 24.936 12.8627 25.416 12.8627 25.992C12.8627 26.568 13.3427 27.048 13.9187 27.048C14.4947 27.048 14.9747 26.568 14.9747 25.992C14.9747 25.416 14.4947 24.936 13.9187 24.936ZM38.1587 18.336H34.6787C34.3907 18.336 34.1267 18.096 34.1267 17.784C34.1267 17.496 34.3907 17.232 34.6787 17.232H38.1587C38.4467 17.232 38.6867 17.496 38.6867 17.784C38.6867 18.096 38.4467 18.336 38.1587 18.336ZM32.9267 18.336H31.9427C31.6307 18.336 31.3907 18.096 31.3907 17.784C31.3907 17.496 31.6307 17.232 31.9427 17.232H32.9267C33.2387 17.232 33.4787 17.496 33.4787 17.784C33.4787 18.096 33.2387 18.336 32.9267 18.336ZM38.1587 20.856H37.2707C36.9587 20.856 36.7187 20.616 36.7187 20.328C36.7187 20.016 36.9587 19.776 37.2707 19.776H38.1587C38.4467 19.776 38.6867 20.016 38.6867 20.328C38.6867 20.616 38.4467 20.856 38.1587 20.856ZM35.0387 20.856H31.9427C31.6307 20.856 31.3907 20.616 31.3907 20.328C31.3907 20.016 31.6307 19.776 31.9427 19.776H35.0387C35.3267 19.776 35.5907 20.016 35.5907 20.328C35.5907 20.616 35.3267 20.856 35.0387 20.856ZM38.1587 23.4H35.4707C35.1827 23.4 34.9187 23.16 34.9187 22.848C34.9187 22.56 35.1827 22.296 35.4707 22.296H38.1587C38.4467 22.296 38.6867 22.56 38.6867 22.848C38.6867 23.16 38.4467 23.4 38.1587 23.4ZM33.1907 23.4H31.9427C31.6307 23.4 31.3907 23.16 31.3907 22.848C31.3907 22.56 31.6307 22.296 31.9427 22.296H33.1907C33.4787 22.296 33.7427 22.56 33.7427 22.848C33.7427 23.16 33.4787 23.4 33.1907 23.4Z" fill="white"/>
    </symbol>
    <symbol id="painting-icon" viewBox="0 0 48 44" fill="none" xmlns="http://www.w3.org/2000/svg">
        <path d="M2.90625 23.5441H5.96316C7.64662 23.5441 9.01134 22.1794 9.01134 20.4959C9.01134 18.8125 10.3761 17.4478 12.0595 17.4478H16.2051C18.8313 17.4478 20.9603 15.3188 20.9603 12.6926C20.9603 10.0663 18.8313 7.93738 16.2051 7.93738" stroke="#0F73F6" stroke-width="1.12" stroke-miterlimit="10" stroke-linejoin="round"/>
        <path d="M33.7617 34.6563C37.7457 34.6563 40.9755 31.4266 40.9755 27.4425C40.9755 24.3663 39.05 21.7398 36.3383 20.7025" stroke="#0F73F6" stroke-width="1.12" stroke-miterlimit="10" stroke-linejoin="round"/>
        <path d="M30.2106 20.2288H22.4496C20.8933 20.2288 19.6317 21.4904 19.6317 23.0466C19.6317 24.6029 18.3701 25.8644 16.8139 25.8644H16.3958C13.9681 25.8644 12 27.8325 12 30.2603C11.9999 32.6881 13.968 34.6562 16.3957 34.6562" stroke="#0F73F6" stroke-width="1.12" stroke-miterlimit="10" stroke-linejoin="round"/>
        <path d="M29.7463 34.6561V36.7186C29.7463 37.8577 28.8228 38.7811 27.6838 38.7811H20.3125C19.1734 38.7811 18.25 37.8577 18.25 36.7186V34.6561" stroke="#0F73F6" stroke-width="1.12" stroke-miterlimit="10" stroke-linejoin="round"/>
        <path d="M37.7967 18.8947L32.9805 15.5223" stroke="#0F73F6" stroke-width="1.12" stroke-miterlimit="10" stroke-linejoin="round"/>
        <path d="M42.8438 42.9062H5.15625C2.87803 42.9062 1.03125 41.0595 1.03125 38.7812V34.6562H46.9688V38.7812C46.9688 41.0595 45.122 42.9062 42.8438 42.9062Z" stroke="#0F73F6" stroke-width="1.12" stroke-miterlimit="10" stroke-linecap="round" stroke-linejoin="round"/>
        <path d="M30.6016 20.1958C31.6321 17.7229 33.4227 14.5454 35.724 11.2588C40.2978 4.72672 45.1567 0.237407 46.5767 1.23163C47.9966 2.22584 45.4398 8.32719 40.8659 14.8593C38.5564 18.1575 36.1743 20.935 34.1989 22.7487" stroke="#0F73F6" stroke-width="1.12" stroke-miterlimit="10" stroke-linecap="round" stroke-linejoin="round"/>
        <path d="M26.695 24.8889C26.9658 26.2797 26.632 27.6458 25.8789 28.7181C28.5781 29.807 31.7522 28.9969 33.5765 26.6062C34.9432 24.8152 34.6214 22.2241 32.7745 20.9339C31.0052 19.6978 28.5685 20.1285 27.3302 21.897C26.6961 22.8025 26.4992 23.8833 26.695 24.8889Z" stroke="#0F73F6" stroke-width="1.12" stroke-miterlimit="10" stroke-linecap="round" stroke-linejoin="round"/>
        <path d="M45.092 34.6562V11.6875C45.092 10.8348 44.8075 10.0486 44.3281 9.4187" stroke="#0F73F6" stroke-width="1.12" stroke-miterlimit="10" stroke-linejoin="round"/>
        <path d="M38.1573 7.9375H6.65625C4.58522 7.9375 2.90625 9.61647 2.90625 11.6875V34.6562" stroke="#0F73F6" stroke-width="1.12" stroke-miterlimit="10" stroke-linejoin="round"/>
    </symbol>
    <symbol id="cup-icon" viewBox="0 0 56 56" fill="none" xmlns="http://www.w3.org/2000/svg">
        <path d="M0 0H36C47.0457 0 56 8.95431 56 20V56H20C8.95431 56 0 47.0457 0 36V0Z" fill="#0265DC"/>
        <path d="M28 31C24.6863 31 22 28.3137 22 25V19.4444C22 19.0306 22 18.8237 22.0603 18.658C22.1614 18.3802 22.3802 18.1614 22.658 18.0603C22.8237 18 23.0306 18 23.4444 18H32.5556C32.9694 18 33.1763 18 33.342 18.0603C33.6198 18.1614 33.8386 18.3802 33.9397 18.658C34 18.8237 34 19.0306 34 19.4444V25C34 28.3137 31.3137 31 28 31ZM28 31V34M34 20H36.5C36.9659 20 37.1989 20 37.3827 20.0761C37.6277 20.1776 37.8224 20.3723 37.9239 20.6173C38 20.8011 38 21.0341 38 21.5V22C38 22.93 38 23.395 37.8978 23.7765C37.6204 24.8117 36.8117 25.6204 35.7765 25.8978C35.395 26 34.93 26 34 26M22 20H19.5C19.0341 20 18.8011 20 18.6173 20.0761C18.3723 20.1776 18.1776 20.3723 18.0761 20.6173C18 20.8011 18 21.0341 18 21.5V22C18 22.93 18 23.395 18.1022 23.7765C18.3796 24.8117 19.1883 25.6204 20.2235 25.8978C20.605 26 21.07 26 22 26M23.4444 38H32.5556C32.801 38 33 37.801 33 37.5556C33 35.5919 31.4081 34 29.4444 34H26.5556C24.5919 34 23 35.5919 23 37.5556C23 37.801 23.199 38 23.4444 38Z" stroke="#F8F7FF" stroke-width="2" stroke-linecap="round" stroke-linejoin="round"/>
    </symbol>
    <symbol id="best-seller-icon" viewBox="0 0 173 40" fill="none" xmlns="http://www.w3.org/2000/svg">
        <path d="M0 0H153C164.046 0 173 8.95431 173 20V40H20C8.95431 40 0 31.0457 0 20V0Z" fill="#0265DC"/>
        <path d="M25.44 28V13.1H31.72C32.7067 13.1 33.5467 13.2733 34.24 13.62C34.9467 13.9533 35.4867 14.4333 35.86 15.06C36.2467 15.6733 36.44 16.42 36.44 17.3C36.44 17.98 36.2533 18.62 35.88 19.22C35.52 19.8067 34.94 20.2933 34.14 20.68V19.42C34.8733 19.7 35.4533 20.0467 35.88 20.46C36.3067 20.8733 36.6067 21.3333 36.78 21.84C36.9533 22.3467 37.04 22.88 37.04 23.44C37.04 24.8667 36.5667 25.9867 35.62 26.8C34.6867 27.6 33.3867 28 31.72 28H25.44ZM28.16 25.6H32C32.7067 25.6 33.2667 25.4067 33.68 25.02C34.1067 24.62 34.32 24.0933 34.32 23.44C34.32 22.7867 34.1067 22.26 33.68 21.86C33.2667 21.46 32.7067 21.26 32 21.26H28.16V25.6ZM28.16 18.88H31.86C32.42 18.88 32.8667 18.72 33.2 18.4C33.5333 18.0667 33.7 17.64 33.7 17.12C33.7 16.6 33.5333 16.1867 33.2 15.88C32.8667 15.5733 32.42 15.42 31.86 15.42H28.16V18.88ZM39.2681 28V13.1H49.1681V15.5H41.9881V19.32H48.7681V21.72H41.9881V25.6H49.1681V28H39.2681ZM56.4827 28.24C55.536 28.24 54.656 28.0667 53.8427 27.72C53.0427 27.3733 52.3493 26.8933 51.7627 26.28C51.1893 25.6533 50.7693 24.9267 50.5027 24.1L52.7627 23.12C53.1227 23.9733 53.6427 24.6467 54.3227 25.14C55.0027 25.62 55.7693 25.86 56.6227 25.86C57.1027 25.86 57.516 25.7867 57.8627 25.64C58.2227 25.48 58.496 25.2667 58.6827 25C58.8827 24.7333 58.9827 24.4133 58.9827 24.04C58.9827 23.6 58.8493 23.24 58.5827 22.96C58.3293 22.6667 57.9427 22.44 57.4227 22.28L54.5627 21.36C53.4027 21 52.5293 20.46 51.9427 19.74C51.356 19.02 51.0627 18.1733 51.0627 17.2C51.0627 16.3467 51.2693 15.5933 51.6827 14.94C52.1093 14.2867 52.696 13.78 53.4427 13.42C54.2027 13.0467 55.0693 12.86 56.0427 12.86C56.936 12.86 57.756 13.02 58.5027 13.34C59.2493 13.6467 59.8893 14.08 60.4227 14.64C60.9693 15.1867 61.376 15.8333 61.6427 16.58L59.4027 17.58C59.1093 16.8333 58.6693 16.26 58.0827 15.86C57.496 15.4467 56.816 15.24 56.0427 15.24C55.5893 15.24 55.1893 15.32 54.8427 15.48C54.496 15.6267 54.2227 15.84 54.0227 16.12C53.836 16.3867 53.7427 16.7067 53.7427 17.08C53.7427 17.4933 53.876 17.86 54.1427 18.18C54.4093 18.4867 54.816 18.7267 55.3627 18.9L58.1027 19.76C59.2893 20.1467 60.176 20.68 60.7627 21.36C61.3627 22.04 61.6627 22.88 61.6627 23.88C61.6627 24.7333 61.4427 25.4867 61.0027 26.14C60.5627 26.7933 59.956 27.3067 59.1827 27.68C58.4093 28.0533 57.5093 28.24 56.4827 28.24ZM66.7519 28V15.5H62.8919V13.1H73.2919V15.5H69.4919V28H66.7519ZM83.8264 28.24C82.8797 28.24 81.9997 28.0667 81.1864 27.72C80.3864 27.3733 79.6931 26.8933 79.1064 26.28C78.5331 25.6533 78.1131 24.9267 77.8464 24.1L80.1064 23.12C80.4664 23.9733 80.9864 24.6467 81.6664 25.14C82.3464 25.62 83.1131 25.86 83.9664 25.86C84.4464 25.86 84.8597 25.7867 85.2064 25.64C85.5664 25.48 85.8397 25.2667 86.0264 25C86.2264 24.7333 86.3264 24.4133 86.3264 24.04C86.3264 23.6 86.1931 23.24 85.9264 22.96C85.6731 22.6667 85.2864 22.44 84.7664 22.28L81.9064 21.36C80.7464 21 79.8731 20.46 79.2864 19.74C78.6997 19.02 78.4064 18.1733 78.4064 17.2C78.4064 16.3467 78.6131 15.5933 79.0264 14.94C79.4531 14.2867 80.0397 13.78 80.7864 13.42C81.5464 13.0467 82.4131 12.86 83.3864 12.86C84.2797 12.86 85.0997 13.02 85.8464 13.34C86.5931 13.6467 87.2331 14.08 87.7664 14.64C88.3131 15.1867 88.7197 15.8333 88.9864 16.58L86.7464 17.58C86.4531 16.8333 86.0131 16.26 85.4264 15.86C84.8397 15.4467 84.1597 15.24 83.3864 15.24C82.9331 15.24 82.5331 15.32 82.1864 15.48C81.8397 15.6267 81.5664 15.84 81.3664 16.12C81.1797 16.3867 81.0864 16.7067 81.0864 17.08C81.0864 17.4933 81.2197 17.86 81.4864 18.18C81.7531 18.4867 82.1597 18.7267 82.7064 18.9L85.4464 19.76C86.6331 20.1467 87.5197 20.68 88.1064 21.36C88.7064 22.04 89.0064 22.88 89.0064 23.88C89.0064 24.7333 88.7864 25.4867 88.3464 26.14C87.9064 26.7933 87.2997 27.3067 86.5264 27.68C85.7531 28.0533 84.8531 28.24 83.8264 28.24ZM91.4556 28V13.1H101.356V15.5H94.1756V19.32H100.956V21.72H94.1756V25.6H101.356V28H91.4556ZM103.35 28V13.1H106.07V25.6H112.45V28H103.35ZM114.21 28V13.1H116.93V25.6H123.31V28H114.21ZM125.069 28V13.1H134.969V15.5H127.789V19.32H134.569V21.72H127.789V25.6H134.969V28H125.069ZM136.963 28V13.1H142.503C143.517 13.1 144.41 13.2867 145.183 13.66C145.97 14.02 146.583 14.5533 147.023 15.26C147.463 15.9533 147.683 16.8 147.683 17.8C147.683 18.8267 147.437 19.7 146.943 20.42C146.463 21.14 145.81 21.6733 144.983 22.02L148.403 28H145.323L141.663 21.46L143.423 22.5H139.683V28H136.963ZM139.683 20.1H142.543C143.037 20.1 143.463 20.0067 143.823 19.82C144.183 19.62 144.463 19.3467 144.663 19C144.863 18.6533 144.963 18.2533 144.963 17.8C144.963 17.3333 144.863 16.9333 144.663 16.6C144.463 16.2533 144.183 15.9867 143.823 15.8C143.463 15.6 143.037 15.5 142.543 15.5H139.683V20.1Z" fill="white"/>
    </symbol>
    <symbol id="layout-grid-icon" viewBox="0 0 40 40" fill="none" xmlns="http://www.w3.org/2000/svg">
        <path d="M0 8C0 3.58172 3.58172 0 8 0H32C36.4183 0 40 3.58172 40 8V32C40 36.4183 36.4183 40 32 40H8C3.58172 40 0 36.4183 0 32V8Z" fill="#0265DC"/>
        <path d="M16.4 11H12.6C12.0399 11 11.7599 11 11.546 11.109C11.3578 11.2049 11.2049 11.3578 11.109 11.546C11 11.7599 11 12.0399 11 12.6V16.4C11 16.9601 11 17.2401 11.109 17.454C11.2049 17.6422 11.3578 17.7951 11.546 17.891C11.7599 18 12.0399 18 12.6 18H16.4C16.9601 18 17.2401 18 17.454 17.891C17.6422 17.7951 17.7951 17.6422 17.891 17.454C18 17.2401 18 16.9601 18 16.4V12.6C18 12.0399 18 11.7599 17.891 11.546C17.7951 11.3578 17.6422 11.2049 17.454 11.109C17.2401 11 16.9601 11 16.4 11Z" stroke="#F8F7FF" stroke-width="2" stroke-linecap="round" stroke-linejoin="round"/>
        <path d="M27.4 11H23.6C23.0399 11 22.7599 11 22.546 11.109C22.3578 11.2049 22.2049 11.3578 22.109 11.546C22 11.7599 22 12.0399 22 12.6V16.4C22 16.9601 22 17.2401 22.109 17.454C22.2049 17.6422 22.3578 17.7951 22.546 17.891C22.7599 18 23.0399 18 23.6 18H27.4C27.9601 18 28.2401 18 28.454 17.891C28.6422 17.7951 28.7951 17.6422 28.891 17.454C29 17.2401 29 16.9601 29 16.4V12.6C29 12.0399 29 11.7599 28.891 11.546C28.7951 11.3578 28.6422 11.2049 28.454 11.109C28.2401 11 27.9601 11 27.4 11Z" stroke="#F8F7FF" stroke-width="2" stroke-linecap="round" stroke-linejoin="round"/>
        <path d="M27.4 22H23.6C23.0399 22 22.7599 22 22.546 22.109C22.3578 22.2049 22.2049 22.3578 22.109 22.546C22 22.7599 22 23.0399 22 23.6V27.4C22 27.9601 22 28.2401 22.109 28.454C22.2049 28.6422 22.3578 28.7951 22.546 28.891C22.7599 29 23.0399 29 23.6 29H27.4C27.9601 29 28.2401 29 28.454 28.891C28.6422 28.7951 28.7951 28.6422 28.891 28.454C29 28.2401 29 27.9601 29 27.4V23.6C29 23.0399 29 22.7599 28.891 22.546C28.7951 22.3578 28.6422 22.2049 28.454 22.109C28.2401 22 27.9601 22 27.4 22Z" stroke="#F8F7FF" stroke-width="2" stroke-linecap="round" stroke-linejoin="round"/>
        <path d="M16.4 22H12.6C12.0399 22 11.7599 22 11.546 22.109C11.3578 22.2049 11.2049 22.3578 11.109 22.546C11 22.7599 11 23.0399 11 23.6V27.4C11 27.9601 11 28.2401 11.109 28.454C11.2049 28.6422 11.3578 28.7951 11.546 28.891C11.7599 29 12.0399 29 12.6 29H16.4C16.9601 29 17.2401 29 17.454 28.891C17.6422 28.7951 17.7951 28.6422 17.891 28.454C18 28.2401 18 27.9601 18 27.4V23.6C18 23.0399 18 22.7599 17.891 22.546C17.7951 22.3578 17.6422 22.2049 17.454 22.109C17.2401 22 16.9601 22 16.4 22Z" stroke="#F8F7FF" stroke-width="2" stroke-linecap="round" stroke-linejoin="round"/>
    </symbol>
    <symbol id="layout-list-icon" viewBox="0 0 20 16" fill="none" xmlns="http://www.w3.org/2000/svg">
        <path d="M19 8L7 8M19 2L7 2M19 14L7 14M3 8C3 8.55228 2.55228 9 2 9C1.44772 9 1 8.55228 1 8C1 7.44772 1.44772 7 2 7C2.55228 7 3 7.44772 3 8ZM3 2C3 2.55228 2.55228 3 2 3C1.44772 3 1 2.55228 1 2C1 1.44772 1.44772 1 2 1C2.55228 1 3 1.44772 3 2ZM3 14C3 14.5523 2.55228 15 2 15C1.44772 15 1 14.5523 1 14C1 13.4477 1.44772 13 2 13C2.55228 13 3 13.4477 3 14Z" stroke="#0D0D15" stroke-width="2" stroke-linecap="round" stroke-linejoin="round"/>
    </symbol>
    <symbol id="heart-icon" viewBox="0 0 40 40" fill="none" xmlns="http://www.w3.org/2000/svg">
        <path d="M1 8C1 4.13401 4.13401 1 8 1H32C35.866 1 39 4.13401 39 8V32C39 35.866 35.866 39 32 39H8C4.13401 39 1 35.866 1 32V8Z" stroke="#273544" stroke-opacity="0.55" stroke-width="2"/>
        <path d="M27.5013 20.5719L20.0013 27.9999L12.5013 20.5719C12.0066 20.0905 11.6169 19.5119 11.3568 18.8726C11.0967 18.2332 10.9718 17.5469 10.99 16.8569C11.0082 16.1668 11.169 15.4881 11.4624 14.8633C11.7558 14.2385 12.1754 13.6812 12.6948 13.2265C13.2141 12.7718 13.822 12.4296 14.4801 12.2214C15.1382 12.0132 15.8323 11.9435 16.5186 12.0167C17.205 12.09 17.8688 12.3045 18.4682 12.6468C19.0675 12.9892 19.5895 13.4519 20.0013 14.0059C20.4148 13.456 20.9374 12.9973 21.5364 12.6585C22.1353 12.3198 22.7978 12.1084 23.4822 12.0375C24.1666 11.9665 24.8584 12.0376 25.5141 12.2463C26.1697 12.455 26.7753 12.7968 27.2928 13.2503C27.8104 13.7038 28.2287 14.2592 28.5217 14.8818C28.8147 15.5044 28.976 16.1808 28.9956 16.8686C29.0152 17.5565 28.8925 18.2409 28.6354 18.8792C28.3783 19.5174 27.9922 20.0958 27.5013 20.5779" stroke="#273544" stroke-opacity="0.55" stroke-width="2" stroke-linecap="round" stroke-linejoin="round"/>
    </symbol>
    <symbol id="pen-icon" viewBox="0 0 136 109" fill="none" xmlns="http://www.w3.org/2000/svg">
        <g filter="url(#filter0_d_3364_7583)">
        <rect x="40" y="9" width="56" height="56" rx="5" fill="white" shape-rendering="crispEdges"/>
        <g clip-path="url(#clip0_3364_7583)">
        <path d="M83.7228 44.2826L80.4428 42.6426L78.3553 37.2126C78.3307 37.1484 78.2932 37.0899 78.245 37.0409C78.1968 36.9918 78.1391 36.9533 78.0753 36.9276L65.1228 31.7501C65.0322 31.714 64.9331 31.7052 64.8376 31.7248C64.7421 31.7443 64.6544 31.7913 64.5853 31.8601L62.8578 33.5876C62.79 33.6567 62.7437 33.7441 62.7246 33.8391C62.7056 33.9341 62.7145 34.0326 62.7503 34.1226L67.9278 47.0751C67.9535 47.1388 67.9921 47.1966 68.0411 47.2448C68.0902 47.2929 68.1486 47.3305 68.2128 47.3551L73.6428 49.4426L75.2828 52.7226C75.3173 52.7949 75.3688 52.8578 75.4327 52.9061C75.4967 52.9544 75.5713 52.9866 75.6503 53.0001C75.6769 53.0025 75.7037 53.0025 75.7303 53.0001C75.8627 52.9995 75.9895 52.9465 76.0828 52.8526L83.8528 45.0826C83.91 45.0274 83.9532 44.9594 83.9789 44.8841C84.0045 44.8089 84.0119 44.7287 84.0003 44.6501C83.9869 44.571 83.9547 44.4964 83.9064 44.4325C83.8581 44.3685 83.7951 44.3171 83.7228 44.2826ZM63.7978 34.0576L64.0753 33.7826L70.5228 40.2301C70.0979 40.8322 69.9144 41.5718 70.0086 42.3027C70.1027 43.0336 70.4677 43.7025 71.0314 44.1773C71.595 44.652 72.3163 44.898 73.0526 44.8665C73.7888 44.835 74.4865 44.5284 75.0076 44.0073C75.5287 43.4862 75.8353 42.7886 75.8667 42.0523C75.8982 41.3161 75.6523 40.5948 75.1775 40.0311C74.7028 39.4675 74.0338 39.1025 73.3029 39.0083C72.572 38.9141 71.8324 39.0976 71.2303 39.5226L64.7828 33.0751L65.0578 32.7976L77.5003 37.7751L79.4628 42.8801L73.8803 48.4626L68.7753 46.5001L63.7978 34.0576ZM72.9253 39.9826C73.3747 39.9832 73.8099 40.1397 74.1569 40.4253C74.5038 40.7108 74.7411 41.1079 74.8281 41.5487C74.9152 41.9896 74.8467 42.447 74.6343 42.843C74.422 43.239 74.0789 43.5492 73.6635 43.7206C73.2481 43.8921 72.7861 43.9142 72.3563 43.7832C71.9264 43.6523 71.5553 43.3763 71.306 43.0024C71.0568 42.6285 70.9449 42.1797 70.9895 41.7325C71.034 41.2854 71.2322 40.8675 71.5503 40.5501C71.9153 40.1862 72.4099 39.9821 72.9253 39.9826ZM75.8678 51.6551L74.6178 49.1551L80.1503 43.6226L82.6503 44.8726L75.8678 51.6551Z" fill="#0F73F6"/>
        <path d="M61.5621 47.7499C61.4665 47.6596 61.3399 47.6092 61.2083 47.6092C61.0768 47.6092 60.9502 47.6596 60.8546 47.7499L60.2196 48.3849C58.525 46.0851 57.5902 43.3138 57.5454 40.4574C57.5006 37.6011 58.348 34.8018 59.9696 32.4499C60.4554 32.7173 61.0148 32.82 61.5639 32.7426C62.113 32.6653 62.6222 32.4121 63.0153 32.021C63.4084 31.6299 63.6641 31.1219 63.7442 30.5732C63.8243 30.0245 63.7245 29.4646 63.4596 28.9774C65.8115 27.3559 68.6107 26.5084 71.4671 26.5533C74.3235 26.5981 77.0947 27.5329 79.3946 29.2274L78.7496 29.8549C78.6566 29.9487 78.6045 30.0754 78.6046 30.2074C78.6042 30.2732 78.6168 30.3385 78.6417 30.3994C78.6666 30.4603 78.7032 30.5157 78.7496 30.5624L80.9546 32.7499C81.0483 32.8431 81.175 32.8953 81.3071 32.8953C81.4392 32.8953 81.5659 32.8431 81.6596 32.7499L83.8521 30.5574C83.8986 30.511 83.9355 30.4559 83.9606 30.3952C83.9858 30.3345 83.9987 30.2694 83.9987 30.2037C83.9987 30.138 83.9858 30.0729 83.9606 30.0122C83.9355 29.9515 83.8986 29.8964 83.8521 29.8499L81.6596 27.6574C81.5659 27.5643 81.4392 27.512 81.3071 27.512C81.175 27.512 81.0483 27.5643 80.9546 27.6574L80.1071 28.4999C78.0183 26.9282 75.5489 25.9407 72.9523 25.6389C70.3558 25.337 67.7257 25.7317 65.3321 26.7824L68.2146 23.9074C68.5414 24.0636 68.913 24.099 69.2634 24.0072C69.6138 23.9155 69.9204 23.7026 70.1288 23.4063C70.3372 23.11 70.4339 22.7495 70.4017 22.3887C70.3696 22.0279 70.2107 21.6901 69.9532 21.4354C69.6957 21.1806 69.3563 21.0252 68.9952 20.9969C68.6341 20.9685 68.2746 21.069 67.9805 21.2805C67.6864 21.492 67.4768 21.8008 67.3888 22.1522C67.3007 22.5036 67.34 22.8748 67.4996 23.1999L62.6346 28.0724C62.1406 27.7411 61.5469 27.5915 60.955 27.6493C60.363 27.7071 59.8094 27.9686 59.3888 28.3892C58.9682 28.8098 58.7067 29.3633 58.6489 29.9553C58.5912 30.5473 58.7407 31.141 59.0721 31.6349L54.1996 36.4999C53.8731 36.3409 53.5009 36.3027 53.1489 36.3922C52.797 36.4817 52.4882 36.693 52.2774 36.9887C52.0665 37.2844 51.9674 37.6452 51.9975 38.0071C52.0276 38.369 52.185 38.7085 52.4418 38.9653C52.6986 39.222 53.0381 39.3795 53.3999 39.4096C53.7618 39.4397 54.1227 39.3405 54.4183 39.1297C54.714 38.9188 54.9254 38.61 55.0149 38.2581C55.1043 37.9062 55.0662 37.5339 54.9071 37.2074L57.7896 34.3324C56.7378 36.7254 56.3419 39.3551 56.6424 41.9517C56.9429 44.5482 57.929 47.018 59.4996 49.1074L58.6546 49.9549C58.5615 50.0486 58.5092 50.1754 58.5092 50.3074C58.5092 50.4395 58.5615 50.5663 58.6546 50.6599L60.8471 52.8524C60.9404 52.9463 61.0672 52.9994 61.1996 52.9999C61.2656 53 61.3309 52.987 61.3918 52.9617C61.4528 52.9364 61.5081 52.8992 61.5546 52.8524L63.7496 50.6599C63.8427 50.5663 63.895 50.4395 63.895 50.3074C63.895 50.1754 63.8427 50.0486 63.7496 49.9549L61.5621 47.7499ZM81.3121 28.7124L82.7971 30.1974L81.3121 31.6824L79.8271 30.1974L81.3121 28.7124ZM68.4996 22.1574C68.5739 22.0825 68.6688 22.0314 68.7722 22.0105C68.8756 21.9896 68.9829 21.9999 69.0804 22.0401C69.178 22.0802 69.2614 22.1485 69.3201 22.2362C69.3788 22.3238 69.4101 22.4269 69.4101 22.5324C69.4101 22.6379 69.3788 22.7411 69.3201 22.8287C69.2614 22.9164 69.178 22.9846 69.0804 23.0248C68.9829 23.065 68.8756 23.0753 68.7722 23.0544C68.6688 23.0335 68.5739 22.9824 68.4996 22.9074C68.4503 22.8582 68.4112 22.7998 68.3845 22.7354C68.3578 22.6711 68.3441 22.6021 68.3441 22.5324C68.3441 22.4628 68.3578 22.3938 68.3845 22.3295C68.4112 22.2651 68.4503 22.2067 68.4996 22.1574ZM60.0996 29.0999C60.2448 28.9541 60.4174 28.8383 60.6074 28.7593C60.7975 28.6803 61.0013 28.6396 61.2071 28.6396C61.4129 28.6396 61.6167 28.6803 61.8068 28.7593C61.9968 28.8383 62.1694 28.9541 62.3146 29.0999C62.5341 29.3191 62.6836 29.5984 62.7443 29.9025C62.805 30.2066 62.7741 30.5219 62.6555 30.8085C62.5369 31.0951 62.336 31.34 62.0782 31.5124C61.8204 31.6847 61.5172 31.7767 61.2071 31.7767C60.897 31.7767 60.5938 31.6847 60.336 31.5124C60.0781 31.34 59.8772 31.0951 59.7587 30.8085C59.6401 30.5219 59.6092 30.2066 59.6699 29.9025C59.7306 29.5984 59.8801 29.3191 60.0996 29.0999ZM53.9096 38.2499C53.8075 38.3351 53.6773 38.3789 53.5445 38.3729C53.4117 38.3669 53.286 38.3115 53.192 38.2175C53.098 38.1235 53.0426 37.9978 53.0366 37.865C53.0306 37.7322 53.0745 37.602 53.1596 37.4999C53.2596 37.4016 53.3943 37.3465 53.5346 37.3465C53.6749 37.3465 53.8095 37.4016 53.9096 37.4999C53.9589 37.5492 53.998 37.6076 54.0246 37.672C54.0513 37.7363 54.0651 37.8053 54.0651 37.8749C54.0651 37.9446 54.0513 38.0136 54.0246 38.0779C53.998 38.1423 53.9589 38.2007 53.9096 38.2499ZM61.2071 51.7824L59.7221 50.2974L61.2071 48.8124L62.6921 50.2974L61.2071 51.7824Z" fill="#0F73F6"/>
        </g>
        </g>
        <defs>
        <filter id="filter0_d_3364_7583" x="0" y="-27" width="136" height="136" filterUnits="userSpaceOnUse" color-interpolation-filters="sRGB">
        <feFlood flood-opacity="0" result="BackgroundImageFix"/>
        <feColorMatrix in="SourceAlpha" type="matrix" values="0 0 0 0 0 0 0 0 0 0 0 0 0 0 0 0 0 0 127 0" result="hardAlpha"/>
        <feOffset dy="4"/>
        <feGaussianBlur stdDeviation="20"/>
        <feComposite in2="hardAlpha" operator="out"/>
        <feColorMatrix type="matrix" values="0 0 0 0 0.111813 0 0 0 0 0.225177 0 0 0 0 0.373682 0 0 0 0.08 0"/>
        <feBlend mode="normal" in2="BackgroundImageFix" result="effect1_dropShadow_3364_7583"/>
        <feBlend mode="normal" in="SourceGraphic" in2="effect1_dropShadow_3364_7583" result="shape"/>
        </filter>
        <clipPath id="clip0_3364_7583">
        <rect width="32" height="32" fill="white" transform="translate(52 21)"/>
        </clipPath>
        </defs>
    </symbol>
    <symbol id="meter-icon" viewBox="0 0 126 134" fill="none" xmlns="http://www.w3.org/2000/svg">
        <g filter="url(#filter0_d_3364_7581)">
        <rect x="30" y="36" width="56" height="56" rx="10" fill="white" shape-rendering="crispEdges"/>
        <g clip-path="url(#clip0_3364_7581)">
        <path d="M72.3999 69.3333H67.2329L71.7053 66.7507C72.074 66.5398 72.3435 66.1909 72.4543 65.7808C72.5654 65.3706 72.5085 64.9333 72.2964 64.5654L68.562 58.0991C68.3494 57.7314 67.999 57.4634 67.5886 57.3542C67.1782 57.2429 66.7402 57.3015 66.3735 57.5166L61.9001 60.0999L64.4819 55.6287C64.6963 55.261 64.7551 54.823 64.6458 54.4116C64.5364 54.0002 64.2673 53.6494 63.8987 53.437L57.4333 49.7026C57.0654 49.4912 56.6287 49.4348 56.2192 49.5457C55.8098 49.6565 55.4612 49.9253 55.25 50.2932L52.6667 54.7681V49.6001C52.6658 48.7168 51.95 48.001 51.0667 48H43.6001C42.7168 48.001 42.001 48.7168 42 49.6001V78.3999C42.001 79.2832 42.7168 79.999 43.6001 80H72.3999C73.2832 79.999 73.999 79.2832 74 78.3999V70.9333C73.999 70.05 73.2832 69.3342 72.3999 69.3333ZM43.6001 69.3333C43.418 69.3352 43.2375 69.3684 43.0667 69.4316V64H47.3364L44.2573 69.3333H43.6001ZM65.0996 69.3333H57.8064L55.363 65.1064L60.9048 61.9065L65.1694 69.2932L65.0996 69.3333ZM60.052 61.167L53.738 64.8132L49.5085 62.3711L52.7073 56.8308L60.0935 61.0952L60.052 61.167ZM51.6001 56.6152L48.3228 62.292C48.321 62.2947 48.3184 62.2959 48.3167 62.2988L48.3137 62.3074L47.9524 62.9333H43.0667V56.5334H51.6001V56.6152ZM48.9753 63.2949L52.6714 65.4292L45.9104 69.3333H45.489L48.9753 63.2949ZM53.9978 65.895L54.0046 65.8911L54.4395 65.6399L56.5745 69.3333H48.0437L53.9978 65.895ZM51.6001 70.3999H58V78.9333H51.6001V70.3999ZM59.0667 70.3999H65.4666V78.9333H59.0667V70.3999ZM66.9089 58.4392C67.0305 58.3674 67.1763 58.3477 67.3127 58.3843C67.4504 58.4214 67.5679 58.5112 67.6396 58.6345L71.3718 65.0974C71.4429 65.2202 71.4619 65.3662 71.4246 65.5032C71.3872 65.6399 71.2969 65.7563 71.1733 65.8259L66.093 68.7593L61.8286 61.3728L66.9089 58.4392ZM56.1748 50.825C56.2446 50.7024 56.3606 50.6125 56.4971 50.5754C56.6333 50.5383 56.7788 50.5569 56.9014 50.6272L63.3633 54.3594C63.4875 54.4309 63.5784 54.5488 63.6157 54.6873C63.6523 54.8247 63.6321 54.9709 63.5593 55.0933L60.6272 60.1714L53.2407 55.907L56.1748 50.825ZM43.6001 49.0667H51.0667C51.3611 49.0671 51.5996 49.3057 51.6001 49.6001V55.4666H43.0667V49.6001C43.0671 49.3057 43.3057 49.0671 43.6001 49.0667ZM43.0667 78.3999V70.9333C43.0671 70.6389 43.3057 70.4004 43.6001 70.3999H50.5334V78.9333H43.6001C43.3057 78.9329 43.0671 78.6943 43.0667 78.3999ZM72.9333 78.3999C72.9329 78.6943 72.6943 78.9329 72.3999 78.9333H66.5334V70.3999H72.3999C72.6943 70.4004 72.9329 70.6389 72.9333 70.9333V78.3999Z" fill="#0F73F6"/>
        <path d="M47.3325 72.5334C46.1543 72.5334 45.1992 73.4885 45.1992 74.6667C45.1992 75.845 46.1543 76.8 47.3325 76.8C48.5107 76.8 49.4658 75.845 49.4658 74.6667C49.4646 73.489 48.5103 72.5347 47.3325 72.5334ZM47.3325 75.7334C46.7434 75.7334 46.2659 75.2559 46.2659 74.6667C46.2659 74.0776 46.7434 73.6001 47.3325 73.6001C47.9216 73.6001 48.3992 74.0776 48.3992 74.6667C48.3987 75.2556 47.9214 75.7327 47.3325 75.7334Z" fill="#0F73F6"/>
        </g>
        </g>
        <defs>
        <filter id="filter0_d_3364_7581" x="-10" y="0" width="136" height="136" filterUnits="userSpaceOnUse" color-interpolation-filters="sRGB">
        <feFlood flood-opacity="0" result="BackgroundImageFix"/>
        <feColorMatrix in="SourceAlpha" type="matrix" values="0 0 0 0 0 0 0 0 0 0 0 0 0 0 0 0 0 0 127 0" result="hardAlpha"/>
        <feOffset dy="4"/>
        <feGaussianBlur stdDeviation="20"/>
        <feComposite in2="hardAlpha" operator="out"/>
        <feColorMatrix type="matrix" values="0 0 0 0 0.111813 0 0 0 0 0.225177 0 0 0 0 0.373682 0 0 0 0.08 0"/>
        <feBlend mode="normal" in2="BackgroundImageFix" result="effect1_dropShadow_3364_7581"/>
        <feBlend mode="normal" in="SourceGraphic" in2="effect1_dropShadow_3364_7581" result="shape"/>
        </filter>
        <clipPath id="clip0_3364_7581">
        <rect width="32" height="32" fill="white" transform="translate(42 48)"/>
        </clipPath>
        </defs>
    </symbol>















</svg>